<?xml version="1.0" encoding="UTF-8"?><svg version="1.1" xmlns="http://www.w3.org/2000/svg" xmlns:xlink="http://www.w3.org/1999/xlink" x="0px" y="0px" viewBox="0 0 1600 1200" style="enable-background:new 0 0 1600 1200;" xml:space="preserve" width="1600px" height="1200px">

<g id="backgound">
	<g>
		<g>
			<path d="M1098.7,701.7c-0.1,16.2-0.3,32.5-0.4,48.7c0,4-0.1,8-0.1,11.9c0,2.7-0.6,6.1,0.5,8.7
				c1.7,4.4,7.4,3.2,9.5,6.9c0.2-0.7,0.4-1.4,0.5-2.1c-7.3,3.6-9.2,11.7-9.8,19.2c-0.5,7.2-0.8,18.8,8.6,20.2
				c-0.1-0.9-0.2-1.8-0.4-2.7c-14.2,6.5-8.5,31.9-2.5,42.1c4.4,7.5,10.9,13.6,17.6,19c3.8,3.1,7.6,6,11.5,9c2.3,1.8,4.6,3.5,6.8,5.3
				c1.2,0.9,6.3,3.7,6.5,5.4c0.4-0.5,0.7-1,1.1-1.4c0.1,0,0.1,0,0.2,0c0.2,0.7,0.4,1.4,0.5,2.1c0.1-0.1,0.1-0.2,0.2-0.3
				c0.8-1.7-1.7-3.2-2.6-1.5c-0.1,0.1-0.1,0.2-0.2,0.3c-0.4,0.8-0.2,1.5,0.5,2.1c0.7,0.6,1.2,0.6,2.1,0.3c0.6-0.2,1.2-0.8,1.1-1.4
				c-0.4-3.1-3.5-4.5-5.9-6.3c-3.5-2.8-7.1-5.5-10.6-8.3c-6.6-5.1-13.3-10.2-19-16.2c-6.4-6.7-10.8-14.5-12.1-23.8
				c-1.1-7.6-2.1-19.8,6.3-23.7c1.1-0.5,0.9-2.6-0.4-2.7c-8-1.2-6.9-12.6-6.3-18.7c0.6-6,2.3-12.3,8.2-15.2c0.7-0.4,0.9-1.4,0.5-2.1
				c-2.1-3.6-7.2-2.9-9.1-6.1c-1.5-2.4-0.5-8-0.4-10.9c0-4,0.1-8,0.1-11.9c0.1-15.2,0.2-30.5,0.4-45.7
				C1101.7,699.8,1098.7,699.7,1098.7,701.7L1098.7,701.7z" style="fill:#E8E8E8;"/>
		</g>
	</g>
	<g>
		<g>
			<path d="M1100.3,702.5c14,0.7,23.8,11.4,32.2,21.4c4,4.8,8.2,9.3,12.3,13.8c4.2,4.5,9.7,13.6,2.1,18
				c-1.3,0.8-0.7,2.8,0.8,2.8c11.6,0.3,16.7,14.4,20.3,23.3c4.3,10.8,7.7,21.9,10.2,33.2c5.1,23.2,6.1,47.1,3.2,70.6
				c-0.2,1.9,2.8,1.9,3,0c3.1-26.2,1.5-52.8-5-78.3c-3-12-7-24.1-12.4-35.3c-3.8-8-9.7-16.3-19.3-16.5c0.3,0.9,0.5,1.9,0.8,2.8
				c14.6-8.4-3.5-24.4-9.4-31.3c-10.5-12.2-21.1-26.7-38.7-27.6C1098.4,699.4,1098.4,702.4,1100.3,702.5L1100.3,702.5z" style="fill:#E8E8E8;"/>
		</g>
	</g>
	<g>
		<g>
			<path d="M1150.5,738.5c7-24.8,16.8-48.7,29.4-71.2c-0.7,0.2-1.4,0.4-2.1,0.5c2.7,1.6,5.5,3.2,8.2,4.8
				c1.4,0.8,2.7-0.8,2.1-2.1c-7.2-14.4,14.4-23.6,21.7-32.2c-0.6,0.1-1.2,0.2-1.8,0.2c1.4,0.8,2.9,1.6,4.3,2.4
				c0.7,0.4,1.6,0.2,2.1-0.5c8-13.6,22.1-21.2,35.7-28.2c-0.7-0.6-1.5-1.1-2.2-1.7c-4.3,14.1,2.5,29.5,3.8,43.6
				c0.7,7.6,0.8,15.3,0.2,23c-0.3,3.8,0,9.5-1.5,12.9c0,2.5-1.4,3.9-4.3,4.4c-0.9,0.1-1.7,0.2-2.6,0.3c-2,0.2-4.1,0.4-6.1,0.6
				c-0.8,0.1-1.6,0.6-1.5,1.5c0.1,2,0.7,2.6,2.2,3.9c1.9,1.6,3.4,1.8,4.3,4.6c0.5,1.5,0.5,3.2,0.5,4.7c-0.1,8.1-1.3,16.4-2.7,24.4
				c-1.4,7.8-3.4,15.5-5.8,23c-2.1,6.3-4.9,15.7-12.7,16.7c-1,0.1-2,1.2-1.3,2.3c5.8,8.9-2.8,19.7-7,27.4
				c-4.6,8.2-8.8,16.6-12.7,25.1c-7.8,16.9-14.2,34.4-19.4,52.3c-0.5,1.9,2.4,2.7,2.9,0.8c5.9-20.6,13.6-40.6,23-59.8
				c4.4-9.1,9.7-17.7,14.3-26.7c3.3-6.5,5.9-14.1,1.6-20.7c-0.4,0.8-0.9,1.5-1.3,2.3c5.9-0.7,9.7-4.9,12.3-10
				c3.9-7.8,6-16.8,7.9-25.3c2.1-9.4,3.5-19,4-28.6c0.2-3.2,0.5-6.8-0.9-9.8c-0.8-2-5.9-5.1-6-6.5c-0.5,0.5-1,1-1.5,1.5
				c5.6-0.6,13.6,0.8,15.5-5.6c2.5-8,2.4-17.9,2.3-26.1c0-8.8-0.9-17.5-2.5-26.1c-1.8-9.7-5-19.4-2-29.2c0.4-1.3-1.1-2.3-2.2-1.7
				c-14.1,7.3-28.6,15.2-36.8,29.3c0.7-0.2,1.4-0.4,2.1-0.5c-1.4-0.8-2.9-1.6-4.3-2.4c-0.5-0.3-1.4-0.3-1.8,0.2
				c-8.4,9.9-30.5,19.3-22.2,35.8c0.7-0.7,1.4-1.4,2.1-2.1c-2.7-1.6-5.5-3.2-8.2-4.8c-0.7-0.4-1.7-0.2-2.1,0.5
				c-12.6,22.8-22.6,46.9-29.7,71.9C1147,739.6,1149.9,740.4,1150.5,738.5L1150.5,738.5z" style="fill:#E8E8E8;"/>
		</g>
	</g>
	<g>
		<g>
			<path d="M1079.8,636.3c-16.8,1.2-25.7-18.5-22.9-32.7c2.7-13.9,16.3-23.7,30.2-23.3c18.3,0.4,27.7,18.3,24.4,35
				c-2.9,14.9-17.9,25.9-32.9,20c-1.8-0.7-2.6,2.2-0.8,2.9c12,4.7,26-0.8,32.6-11.7c7-11.6,6.2-28.2-1.9-39
				c-8.2-11-23.9-12.5-35.8-7.2c-11.9,5.2-19.7,16.9-19.4,29.9c0.3,14.2,10.8,30.2,26.4,29.1
				C1081.7,639.2,1081.8,636.2,1079.8,636.3L1079.8,636.3z" style="fill:#E8E8E8;"/>
		</g>
	</g>
	<g>
		<g>
			<path d="M1233.3,416.6c-5.8,10.8-12.5,21-20.1,30.6c-1.2,1.5,0.9,3.6,2.1,2.1c7.8-9.8,14.7-20.2,20.6-31.2
				C1236.8,416.4,1234.2,414.9,1233.3,416.6L1233.3,416.6z" style="fill:#E8E8E8;"/>
		</g>
	</g>
	<g>
		<g>
			<path d="M1233.2,419c3.6,9.5,7.4,19,11.3,28.4c0.7,1.8,3.6,1,2.9-0.8c-3.9-9.4-7.7-18.9-11.3-28.4
				C1235.4,416.4,1232.5,417.2,1233.2,419L1233.2,419z" style="fill:#E8E8E8;"/>
		</g>
	</g>
	<g>
		<g>
			<path d="M1232.5,420.4c-0.7,37.2-5.5,74.2-14.4,110.3c-0.5,1.9,2.4,2.7,2.9,0.8c9-36.4,13.8-73.6,14.5-111.1
				C1235.6,418.4,1232.6,418.4,1232.5,420.4L1232.5,420.4z" style="fill:#E8E8E8;"/>
		</g>
	</g>
	<g>
		<g>
			<path d="M1249.8,481.5c2.6,21.4,2,43-1.9,64.2c-0.3,1.9,2.5,2.7,2.9,0.8c3.9-21.5,4.6-43.3,2-65
				C1252.5,479.6,1249.5,479.6,1249.8,481.5L1249.8,481.5z" style="fill:#E8E8E8;"/>
		</g>
	</g>
	<g>
		<g>
			<path d="M1238.3,523.1c3.5,8,9.6,15.3,10,24.3c0.1,1.5,2,2.1,2.8,0.8c3.5-6.1,7.1-12.2,10.6-18.3
				c1-1.7-1.6-3.2-2.6-1.5c-3.5,6.1-7.1,12.2-10.6,18.3c0.9,0.3,1.9,0.5,2.8,0.8c-0.4-9.7-6.7-17.2-10.4-25.8
				C1240.1,519.8,1237.5,521.3,1238.3,523.1L1238.3,523.1z" style="fill:#E8E8E8;"/>
		</g>
	</g>
	<g>
		<g>
			<path d="M556,1029.4c60.3-5.6,120.7-12.9,181.2-15.4c61-2.5,122.3-0.9,183.3,0.7c35,0.9,70,2.6,104.8,5.9
				c1.9,0.2,1.9-2.8,0-3c-61.2-5.8-122.6-6.5-184-7.2c-30.8-0.4-61.6-0.7-92.3,0.3c-29.9,0.9-59.7,3.4-89.5,6.1
				c-34.5,3.2-69,6.4-103.5,9.6C554.1,1026.5,554.1,1029.5,556,1029.4L556,1029.4z" style="fill:#E8E8E8;"/>
		</g>
	</g>
	<g>
		<g>
			<path d="M869.8,985.2c25.1,4.7,49.9,4.5,75.2,2.2c26-2.4,51.9-3.9,78-5.1c52.4-2.3,104.8-4.4,157.1-6.6
				c29.9-1.3,59.8-2.5,89.7-3.8c1.9-0.1,1.9-3.1,0-3c-52.5,2.2-104.9,4.4-157.4,6.6c-51.6,2.2-103.5,3.3-155,7.7
				c-14,1.2-28,2.8-42,3c-15,0.2-30-1.2-44.8-4C868.7,982,867.9,984.9,869.8,985.2L869.8,985.2z" style="fill:#E8E8E8;"/>
		</g>
	</g>
	<g>
		<g>
			<path d="M189.4,964c46.6,1.3,93.2,1.1,139.8-0.6c1.9-0.1,1.9-3.1,0-3c-46.6,1.7-93.2,1.9-139.8,0.6
				C187.4,960.9,187.4,963.9,189.4,964L189.4,964z" style="fill:#E8E8E8;"/>
		</g>
	</g>
	<g>
		<g>
			<path d="M240.3,1004.2c17-3.6,35-1.3,52.2-0.5c17.3,0.9,34.5,1.7,51.8,2.6c35.2,1.8,70.3,3.6,105.5,5.3
				c1.9,0.1,1.9-2.9,0-3c-35.8-1.8-71.7-3.6-107.5-5.4c-17.9-0.9-35.8-1.8-53.7-2.7c-16.3-0.8-32.9-2.7-49,0.8
				C237.7,1001.7,238.5,1004.6,240.3,1004.2L240.3,1004.2z" style="fill:#E8E8E8;"/>
		</g>
	</g>
	<g>
		<g>
			<path d="M509.9,928c61.8,4.2,122.6-11.8,184.3-11.6c1.9,0,1.9-3,0-3c-61.7-0.2-122.5,15.7-184.3,11.6
				C508,924.8,508,927.9,509.9,928L509.9,928z" style="fill:#E8E8E8;"/>
		</g>
	</g>
	<g>
		<g>
			<path d="M463.6,617.2c0.5-1.7,1-3.4,1.8-5c0.5-0.7,0.9-1.3,1.4-2c2.1-0.2,4.3-0.5,6.4-0.7c0.6,0.4,1.1,1.6,1.5,2.2
				c1.5,2.1,3.1,3.9,5.4,5.3c4.4,2.6,9.7,3.2,14.4,1.4c12.3-4.5,16.9-20.8,31.9-19.2c4,0.4,7.8,2,10.7,4.8c2.2,2.1,3.9,4.7,6.2,6.7
				c4.1,3.4,9.2,3.9,14.1,2.1c6-2.1,10.6-6.6,15.1-10.9c6.1-5.7,15-12.6,23.1-6.5c5.3,3.9,8.4,9.9,15,12c6.2,2,12.8,0.8,18-3.1
				c1.5-1.1,0-3.8-1.5-2.6c-7.2,5.4-16.2,4.5-22.5-1.8c-4.2-4.1-7.8-9.2-14-9.9c-14.6-1.8-22.2,16-34.6,20.1
				c-9.4,3.1-12.5-5.3-18.7-9.9c-4.6-3.4-10.4-4.8-16.1-3.9c-6,0.9-10.6,4.5-14.8,8.6c-4.9,4.9-10.1,11.6-17.7,11.6
				c-5.1,0-9-2.8-11.8-6.8c-1.6-2.2-2.9-4-5.8-4.3c-6.3-0.6-9,6-10.5,10.9C460.1,618.2,463,619,463.6,617.2L463.6,617.2z" style="fill:#E8E8E8;"/>
		</g>
	</g>
	<g>
		<g>
			<path d="M617.8,565.5c3.6-10.5,16.2-1.6,21,2.3c4.2,3.4,9.1,6.9,14.8,6.7c9.4-0.4,14.4-10,22.1-14
				c10.7-5.5,17.2,8.8,27.6,7.4c4.6-0.6,7-4.3,9.9-7.5c3.1-3.4,6.3-3.4,10.7-2.4c4.1,1,8.3,2,12.4,3c1.9,0.5,2.7-2.4,0.8-2.9
				c-4.1-1-8.3-2-12.4-3c-2.8-0.7-5.6-1.5-8.4-0.7c-5.5,1.7-7.1,9-12.6,10.3c-5.9,1.4-11.7-5.2-16.8-7.3c-4.3-1.8-8.5-1.8-12.6,0.4
				c-4.4,2.3-7.7,6.2-11.6,9.3c-2.6,2.1-5.5,4-8.9,4.2c-5.2,0.3-9.5-3.3-13.3-6.3c-4.6-3.6-9.5-7.9-15.8-7.4c-4.5,0.3-8.2,2.7-9.7,7
				C614.3,566.5,617.2,567.3,617.8,565.5L617.8,565.5z" style="fill:#E8E8E8;"/>
		</g>
	</g>
	<g>
		<g>
			<path d="M1069.9,273.7c-0.9,18.7-1.5,37.5-1.7,56.3c0,1.9,3,1.9,3,0c0.2-18.8,0.8-37.5,1.7-56.3
				C1073,271.8,1070,271.8,1069.9,273.7L1069.9,273.7z" style="fill:#E8E8E8;"/>
		</g>
	</g>
	<g>
		<g>
			<path d="M1071.9,275.1c23.1-3.2,46.6-6.3,69.6-0.9c1.9,0.4,2.7-2.4,0.8-2.9c-23.5-5.6-47.6-2.4-71.2,0.9
				C1069.2,272.4,1070,275.3,1071.9,275.1L1071.9,275.1z" style="fill:#E8E8E8;"/>
		</g>
	</g>
	<g>
		<g>
			<path d="M1139.6,275.2c0.5,38-0.2,76.1-2.2,114.1c-0.1,1.9,2.9,1.9,3,0c2-38,2.7-76,2.2-114.1
				C1142.6,273.3,1139.6,273.3,1139.6,275.2L1139.6,275.2z" style="fill:#E8E8E8;"/>
		</g>
	</g>
	<g>
		<g>
			<path d="M1070.7,379.1c0.5,4.8,0.7,9.8,1.6,14.5c0.5,2.3,1.3,3.9,3.3,5.3c6.3,4.1,16.5,1.7,23.4,1.3
				c9.8-0.6,19.7-1.2,29.5-1.8c4.4-0.3,11.4-1.5,8.7-7.6c-0.8-1.8-3.4-0.2-2.6,1.5c0.5,1.1-5.1,2.9-6.1,3.1
				c-1.6,0.3-3.3,0.2-4.9,0.3c-2.9,0.2-5.9,0.4-8.8,0.5c-5.9,0.4-11.8,0.7-17.7,1.1c-5.4,0.3-11.4,1.4-16.8,0.2
				c-6.8-1.6-5.9-12.6-6.6-18.3C1073.5,377.2,1070.5,377.2,1070.7,379.1L1070.7,379.1z" style="fill:#E8E8E8;"/>
		</g>
	</g>
	<g>
		<g>
			<path d="M1052.5,375.4c-8.8,12.9-17.9,25.6-27.1,38.2c-0.3,0.4-0.3,1.1,0,1.5c1.6,2.5,4.3,3.5,7.2,2.6
				c4.3-1.3,6.4-6.2,8.6-9.6c3.6-5.6,7.7-10.9,12.1-16c1.9-2.1,3.8-4.2,5.8-6.2c2.3-2.3,6.2-7.2,9.5-7.7c1.9-0.3,1.1-3.2-0.8-2.9
				c-3,0.5-5,2.9-7.2,4.9c-2.9,2.7-5.7,5.5-8.4,8.5c-5.2,5.8-10,12-14.2,18.5c-1.2,1.8-2.2,4-3.7,5.6c-1.6,2.3-3.3,2.5-5.3,0.6
				c0.6-0.8,1.2-1.6,1.7-2.4c2.7-3.7,5.4-7.4,8-11.1c5.5-7.7,10.9-15.4,16.2-23.2C1056.2,375.3,1053.6,373.8,1052.5,375.4
				L1052.5,375.4z" style="fill:#E8E8E8;"/>
		</g>
	</g>
	<g>
		<g>
			<path d="M1068.1,379.1c12.4,0.3,24.3-7.2,29.2-18.6c4.4-10.3,2-23.7-7.3-30.5c-10.7-7.7-24.4-1.9-32.7,6.5
				c-4.9,5-9,11.3-10,18.3c-0.4,2.8-0.3,5.6,0.4,8.3c0.4,1.6,1,3.1,1.8,4.5c0.2,0.4,4.8,6.9,2.8,6.8c-1.9-0.2-1.9,2.8,0,3
				c3.1,0.3,4.7-2.5,3.8-5.3c-0.7-2.3-2.9-3.9-4.1-6c-1.8-3.3-2.2-7.1-1.7-10.8c1.7-12.8,15.3-26.2,28.5-26
				c13,0.1,19.8,14.6,17.1,26c-3,12.4-15.2,21.1-27.8,20.7C1066.1,376.1,1066.1,379.1,1068.1,379.1L1068.1,379.1z" style="fill:#E8E8E8;"/>
		</g>
	</g>
	<g>
		<g>
			<path d="M1082.3,285.7c0,0-0.1-0.1-0.1-0.1c0,0.7,0,1.4,0,2.1c1.3-1.5,10.3-1.4,12.7-1.7c3.8-0.4,7.7-0.7,11.5-0.9
				c3.8-0.2,7.7-0.4,11.6-0.5c1.7,0,10.6,0.8,11.2-0.8c-0.7,1.8,2.2,2.6,2.9,0.8c0.1-0.2,0.1-0.3,0.2-0.5c0.2-0.5,0-1.1-0.4-1.5
				c-2.2-2.2-6.2-1.2-9.1-1.2c-5.5,0-10.9,0.2-16.4,0.6c-5.1,0.3-10.2,0.8-15.4,1.3c-2.6,0.3-9.1-0.1-11,2.1c-0.5,0.6-0.6,1.5,0,2.1
				c0,0,0.1,0.1,0.1,0.1C1081.6,289.2,1083.7,287,1082.3,285.7L1082.3,285.7z" style="fill:#E8E8E8;"/>
		</g>
	</g>
	<g>
		<g>
			<path d="M1080.9,300.3c10.1,1.4,19.9,1,30,0.6c1.9-0.1,1.9-3.1,0-3c-9.9,0.4-19.4,0.8-29.2-0.5
				C1079.8,297.2,1079,300.1,1080.9,300.3L1080.9,300.3z" style="fill:#E8E8E8;"/>
		</g>
	</g>
	<g>
		<g>
			<path d="M1074.1,311.6c-0.3,0.3-0.6,0.7-0.9,1c-0.9,1-0.3,2.5,1.1,2.6c17.4,0.3,34.8-0.5,52.1-2.4
				c1.9-0.2,1.9-3.2,0-3c-17.3,1.9-34.7,2.7-52.1,2.4c0.4,0.9,0.7,1.7,1.1,2.6c0.3-0.3,0.6-0.7,0.9-1
				C1077.5,312.3,1075.4,310.2,1074.1,311.6L1074.1,311.6z" style="fill:#E8E8E8;"/>
		</g>
	</g>
	<g>
		<g>
			<path d="M1095.6,328c9.1,0.7,18.2,0.3,27.2-1.2c1.9-0.3,1.1-3.2-0.8-2.9c-8.8,1.4-17.6,1.8-26.4,1.1
				C1093.6,324.9,1093.6,327.9,1095.6,328L1095.6,328z" style="fill:#E8E8E8;"/>
		</g>
	</g>
	<g>
		<g>
			<path d="M1071.2,368.5c-8.1,0.4-15-6.7-12.4-14.9c2-6.5,9.5-13.4,16.3-14.5c3.3-0.5,6.9,0.3,9.4,2.6
				c3.7,3.4,2.7,8.4,1,12.5c-2.9,7.2-8.2,13.7-16.3,14.6c-1.9,0.2-1.9,3.2,0,3c10.4-1.1,17.8-10,20.3-19.8c2.4-9.2-4.4-16.8-13.9-16
				c-8.8,0.8-18.5,9.7-20.1,18.4c-1.7,9.7,6.2,17.6,15.7,17.1C1073.1,371.4,1073.1,368.4,1071.2,368.5L1071.2,368.5z" style="fill:#E8E8E8;"/>
		</g>
	</g>
	<g>
		<g>
			<path d="M1072.9,340.4c-4,8.6-7.7,17.3-11,26.1c-0.7,1.8,2.2,2.6,2.9,0.8c3.3-8.6,6.8-17.1,10.7-25.4
				C1076.3,340.1,1073.8,338.6,1072.9,340.4L1072.9,340.4z" style="fill:#E8E8E8;"/>
		</g>
	</g>
	<g>
		<g>
			<path d="M1077.5,349c-2.6,5.4-5.1,10.8-7.7,16.2c-0.8,1.7,1.8,3.3,2.6,1.5c2.6-5.4,5.1-10.8,7.7-16.2
				C1080.9,348.8,1078.4,347.2,1077.5,349L1077.5,349z" style="fill:#E8E8E8;"/>
		</g>
	</g>
	<g>
		<g>
			<path d="M334.1,185.7c0,9.1,0,18.3,0,27.4c0,1.9,3,1.9,3,0c0-9.1,0-18.3,0-27.4C337.1,183.8,334.1,183.8,334.1,185.7
				L334.1,185.7z" style="fill:#E8E8E8;"/>
		</g>
	</g>
	<g>
		<g>
			<path d="M336,214.4c8.5,0,16.9,0,25.4,0c1.9,0,1.9-3,0-3c-8.5,0-16.9,0-25.4,0C334.1,211.4,334.1,214.4,336,214.4
				L336,214.4z" style="fill:#E8E8E8;"/>
		</g>
	</g>
	<g>
		<g>
			<path d="M363.2,211.2c0-9.9,0-19.9,0-29.8c0-1.9-3-1.9-3,0c0,9.9,0,19.9,0,29.8C360.2,213.1,363.2,213.1,363.2,211.2
				L363.2,211.2z" style="fill:#E8E8E8;"/>
		</g>
	</g>
	<g>
		<g>
			<path d="M362.1,179.5c-8.7,0-17.4,0-26,0c-1.9,0-1.9,3,0,3c8.7,0,17.4,0,26,0C364,182.5,364,179.5,362.1,179.5
				L362.1,179.5z" style="fill:#E8E8E8;"/>
		</g>
	</g>
	<g>
		<g>
			<path d="M346.8,216c0,10.2,0,20.3,0,30.5c0,1.9,3,1.9,3,0c0-10.2,0-20.3,0-30.5C349.8,214.1,346.8,214.1,346.8,216
				L346.8,216z" style="fill:#E8E8E8;"/>
		</g>
	</g>
	<g>
		<g>
			<path d="M311.6,246.1c11.1-10.6,22.7-20.8,34.7-30.5c1.5-1.2-0.6-3.3-2.1-2.1c-12,9.7-23.5,19.8-34.7,30.5
				C308.1,245.3,310.2,247.4,311.6,246.1L311.6,246.1z" style="fill:#E8E8E8;"/>
		</g>
	</g>
	<g>
		<g>
			<path d="M350,216.6c12,9.1,24,18.2,36,27.3c1.5,1.2,3-1.4,1.5-2.6c-12-9.1-24-18.2-36-27.3
				C350,212.8,348.5,215.4,350,216.6L350,216.6z" style="fill:#E8E8E8;"/>
		</g>
	</g>
	<g>
		<g>
			<path d="M300,249.7c6.6,0,13.2,0,19.9,0c1.9,0,1.9-3,0-3c-6.6,0-13.2,0-19.9,0C298.1,246.7,298.1,249.7,300,249.7
				L300,249.7z" style="fill:#E8E8E8;"/>
		</g>
	</g>
	<g>
		<g>
			<path d="M318.1,250.3c0,7.5,0,15.1,0,22.6c0,1.9,3,1.9,3,0c0-7.5,0-15.1,0-22.6C321.1,248.3,318.1,248.3,318.1,250.3
				L318.1,250.3z" style="fill:#E8E8E8;"/>
		</g>
	</g>
	<g>
		<g>
			<path d="M297.8,248.9c0,8.8,0,17.6,0,26.4c0,1.9,3,1.9,3,0c0-8.8,0-17.6,0-26.4C300.8,246.9,297.8,246.9,297.8,248.9
				L297.8,248.9z" style="fill:#E8E8E8;"/>
		</g>
	</g>
	<g>
		<g>
			<path d="M299,277.1c6.2,0,12.3,0,18.5,0c1.9,0,1.9-3,0-3c-6.2,0-12.3,0-18.5,0C297.1,274.1,297.1,277.1,299,277.1
				L299,277.1z" style="fill:#E8E8E8;"/>
		</g>
	</g>
	<g>
		<g>
			<path d="M337.6,249.6c0,8.7,0,17.4,0,26c0,1.9,3,1.9,3,0c0-8.7,0-17.4,0-26C340.6,247.6,337.6,247.6,337.6,249.6
				L337.6,249.6z" style="fill:#E8E8E8;"/>
		</g>
	</g>
	<g>
		<g>
			<path d="M339.1,276.4c6.1,0,12.1,0,18.2,0c1.9,0,1.9-3,0-3c-6.1,0-12.1,0-18.2,0
				C337.2,273.4,337.2,276.4,339.1,276.4L339.1,276.4z" style="fill:#E8E8E8;"/>
		</g>
	</g>
	<g>
		<g>
			<path d="M340.1,251.1c5.4,0,10.7,0,16.1,0c1.9,0,1.9-3,0-3c-5.4,0-10.7,0-16.1,0
				C338.2,248.1,338.2,251.1,340.1,251.1L340.1,251.1z" style="fill:#E8E8E8;"/>
		</g>
	</g>
	<g>
		<g>
			<path d="M355.1,249.2c0,8.2,0,16.4,0,24.7c0,1.9,3,1.9,3,0c0-8.2,0-16.4,0-24.7C358.1,247.3,355.1,247.3,355.1,249.2
				L355.1,249.2z" style="fill:#E8E8E8;"/>
		</g>
	</g>
	<g>
		<g>
			<path d="M380,249.2c-0.3,6.5-0.5,13-0.5,19.5c0,1.9,3,1.9,3,0c0-6.5,0.2-13,0.5-19.5
				C383.1,247.3,380.1,247.3,380,249.2L380,249.2z" style="fill:#E8E8E8;"/>
		</g>
	</g>
	<g>
		<g>
			<path d="M381.3,249.9c6.6-0.7,13.2-1.5,19.8-2.2c1.9-0.2,1.9-3.2,0-3c-6.6,0.7-13.2,1.5-19.8,2.2
				C379.4,247.1,379.3,250.1,381.3,249.9L381.3,249.9z" style="fill:#E8E8E8;"/>
		</g>
	</g>
	<g>
		<g>
			<path d="M400.1,246.8c-0.7,6.7-0.5,13.3,0.7,19.9c0.3,1.9,3.2,1.1,2.9-0.8c-1.1-6.4-1.3-12.7-0.6-19.1
				C403.3,244.9,400.3,244.9,400.1,246.8L400.1,246.8z" style="fill:#E8E8E8;"/>
		</g>
	</g>
	<g>
		<g>
			<path d="M382.3,271.3c6.6-1,13.2-2,19.8-3c1.9-0.3,1.1-3.2-0.8-2.9c-6.6,1-13.2,2-19.8,3
				C379.6,268.7,380.4,271.5,382.3,271.3L382.3,271.3z" style="fill:#E8E8E8;"/>
		</g>
	</g>
	<g>
		<g>
			<path d="M346.4,277.3c-3.7,5.6-6.9,11.5-9.8,17.5c-0.8,1.7,1.8,3.3,2.6,1.5c2.9-6.1,6.2-11.9,9.8-17.5
				C350,277.2,347.4,275.7,346.4,277.3L346.4,277.3z" style="fill:#E8E8E8;"/>
		</g>
	</g>
	<g>
		<g>
			<path d="M347.3,278.5c3.7,5,6.9,10.2,9.6,15.7c0.9,1.7,3.5,0.2,2.6-1.5c-2.8-5.5-6-10.8-9.6-15.7
				C348.8,275.4,346.2,276.9,347.3,278.5L347.3,278.5z" style="fill:#E8E8E8;"/>
		</g>
	</g>
	<g>
		<g>
			<path d="M331.2,298.7c2.1,0,4.2,0,6.4,0.1c1,0,1.9,0.1,2.9,0.2c1.8,0.1,1.6-0.5,1.9,1.1c0.7,3.8-0.1,8.7-0.4,12.6
				c-0.2,1.9,2.8,1.9,3,0c0.2-3,0.4-6.1,0.4-9.1c0-1.7,0.5-4.5-0.4-6.1c-0.9-1.5-3-1.3-4.5-1.4c-3.1-0.2-6.2-0.3-9.3-0.3
				C329.3,295.7,329.3,298.7,331.2,298.7L331.2,298.7z" style="fill:#E8E8E8;"/>
		</g>
	</g>
	<g>
		<g>
			<path d="M329.2,298.6c0.3,3.5,0.6,6.9,0.9,10.4c0.2,2.8-0.2,6.9,0.9,9.6c0.4,1.1,0.9,1.5,2,1.7
				c2.6,0.5,6.5-0.8,9.1-1.2c1.9-0.3,1.1-3.1-0.8-2.9c-1.8,0.2-4.6,1.3-6.3,0.9c-1.9-0.5-1.5-3.1-1.6-5.1c-0.4-4.5-0.8-8.9-1.2-13.4
				C332,296.7,329,296.6,329.2,298.6L329.2,298.6z" style="fill:#E8E8E8;"/>
		</g>
	</g>
	<g>
		<g>
			<path d="M351.8,298.2c-0.2,2.9-0.3,5.9-0.2,8.8c0,0.7,0.9,7.3,0.6,7.5c0.5-0.1,1-0.3,1.5-0.4c-0.1,0-0.2-0.1-0.4-0.1
				c0.4,0.5,0.7,1,1.1,1.4c0-0.1,0-0.2,0-0.4c-0.4,0.5-0.7,1-1.1,1.4c0.1,0,0.2,0,0.3-0.1c1.9-0.4,1.1-3.3-0.8-2.9
				c-0.1,0-0.2,0-0.3,0.1c-0.7,0.1-1.1,0.8-1.1,1.4c0,0.1,0,0.2,0,0.4c0,0.6,0.5,1.3,1.1,1.4c2.6,0.5,2.6-1.9,2.5-3.8
				c-0.4-5-0.6-9.9-0.2-15C354.9,296.2,351.9,296.3,351.8,298.2L351.8,298.2z" style="fill:#E8E8E8;"/>
		</g>
	</g>
	<g>
		<g>
			<path d="M353.6,298.9c0-0.7,6.4-0.9,7.3-0.8c2.5,0.4,2,0.6,2.4,2.4c0.3,1.2-0.1,2.9-0.2,4.1c-0.1,2.5-0.1,4.9,0,7.4
				c0,1.4,1,5.6,0.3,6.6c0.7-0.2,1.4-0.4,2.1-0.5c-0.1,0-0.2-0.1-0.3-0.1c0.2,0.6,0.5,1.1,0.7,1.7c0-0.1,0.1-0.2,0.1-0.3
				c0.5-1.9-2.4-2.7-2.9-0.8c0,0.1-0.1,0.2-0.1,0.3c-0.2,0.6,0.1,1.4,0.7,1.7c0.1,0,0.2,0.1,0.3,0.1c0.8,0.3,1.6,0.2,2.1-0.5
				c0.7-1,0.4-2,0.3-3.2c-0.1-2.7-0.3-5.5-0.3-8.2c0-2.7,0.1-5.5,0.2-8.2c0.1-1.2,0.4-2.8-0.4-3.9c-1.7-2.3-7.1-1.6-9.3-1.3
				c-2.5,0.3-5.8,0.6-6,3.6C350.6,300.8,353.6,300.8,353.6,298.9L353.6,298.9z" style="fill:#E8E8E8;"/>
		</g>
	</g>
	<g>
		<g>
			<path d="M353.9,319.2c3-0.2,6,0.1,8.9,0.8c1.9,0.5,2.7-2.4,0.8-2.9c-3.2-0.9-6.4-1.2-9.7-1
				C351.9,316.3,351.9,319.3,353.9,319.2L353.9,319.2z" style="fill:#E8E8E8;"/>
		</g>
	</g>
	<g>
		<g>
			<path d="M391.5,271.9c-2.4,5.3-4.5,10.8-6.4,16.3c-0.6,1.8,2.3,2.6,2.9,0.8c1.8-5.3,3.8-10.5,6.1-15.6
				C394.9,271.6,392.3,270.1,391.5,271.9L391.5,271.9z" style="fill:#E8E8E8;"/>
		</g>
	</g>
	<g>
		<g>
			<path d="M376.2,295.6c5-1.4,10.1-2.1,15.4-1.9c1.9,0.1,1.9-2.9,0-3c-5.5-0.2-10.9,0.5-16.2,2
				C373.5,293.2,374.3,296.1,376.2,295.6L376.2,295.6z" style="fill:#E8E8E8;"/>
		</g>
	</g>
	<g>
		<g>
			<path d="M376.1,294.2c-0.9,2.8-0.2,5.4,0.1,8.2c0.3,3.4,0.3,6.7,0.2,10.1c-0.2,4.4,0.9,4.9,5.3,4.5
				c3-0.3,7.1,0.5,8.2-2.8c1-3.2,0.7-7.5,1-10.9c0.3-3.6,0.7-7.3,1-10.9c0.2-1.9-2.8-1.9-3,0c-0.4,4.2-0.8,8.5-1.2,12.7
				c-0.2,1.7-0.1,3.8-0.5,5.5c-0.6,2.8-0.9,3-3.8,3.3c-0.9,0.1-1.7,0.2-2.6,0.3c-1.7,0.6-2.2,0.1-1.5-1.6c-0.4-1.4,0.2-3.6,0.1-5.1
				c-0.1-3.8-1.6-8.9-0.5-12.5C379.6,293.1,376.7,292.3,376.1,294.2L376.1,294.2z" style="fill:#E8E8E8;"/>
		</g>
	</g>
	<g>
		<g>
			<path d="M395.7,274.7c2.3,3.5,4.3,7.2,6.2,11c0.8,1.7,3.4,0.2,2.6-1.5c-1.8-3.8-3.9-7.4-6.2-11
				C397.2,271.5,394.6,273,395.7,274.7L395.7,274.7z" style="fill:#E8E8E8;"/>
		</g>
	</g>
	<g>
		<g>
			<path d="M399.1,290.1c5,0,10,0,15,0c1.9,0,1.9-3,0-3c-0.3,0-0.6,0-0.9,0c-1.9,0-1.9,3,0,3c0.3,0,0.6,0,0.9,0
				c1.9,0,1.9-3,0-3c-5,0-10,0-15,0C397.1,287.1,397.1,290.1,399.1,290.1L399.1,290.1z" style="fill:#E8E8E8;"/>
		</g>
	</g>
	<g>
		<g>
			<path d="M397.6,290c0.4,3.8,0.7,7.6,0.8,11.4c0.1,2.7-0.8,7.3,0.4,9.8c0.7,1.5,1.6,1.7,3.2,1.7
				c3.7-0.1,7.7-1,11.4-1.5c0.6-0.1,1.1-0.9,1.1-1.4c-0.1-6.8-0.2-13.5-0.3-20.3c0-1.9-3-1.9-3,0c0.1,6.8,0.2,13.5,0.3,20.3
				c0.4-0.5,0.7-1,1.1-1.4c-2.4,0.3-4.8,0.6-7.2,1c-0.8,0.1-3.1,0.8-3.8,0.2c-0.5-0.4,0-3.5,0-4.1c-0.1-5.2-0.4-10.4-0.9-15.5
				C400.4,288.1,397.4,288.1,397.6,290L397.6,290z" style="fill:#E8E8E8;"/>
		</g>
	</g>
	<g>
		<g>
			<path d="M286.6,298.2c5.2-4.8,10.5-9.3,16.2-13.4c1.5-1.1,0-3.7-1.5-2.6c-5.9,4.3-11.5,8.9-16.8,13.9
				C283.1,297.4,285.2,299.5,286.6,298.2L286.6,298.2z" style="fill:#E8E8E8;"/>
		</g>
	</g>
	<g>
		<g>
			<path d="M301.9,283.5c3,4.3,5.5,8.8,7.5,13.5c0.8,1.8,3.4,0.2,2.6-1.5c-2.1-4.8-4.6-9.3-7.5-13.5
				C303.4,280.4,300.8,281.9,301.9,283.5L301.9,283.5z" style="fill:#E8E8E8;"/>
		</g>
	</g>
	<g>
		<g>
			<path d="M273.3,303.7c2.7-0.2,5.3-0.4,8-0.6c1.2-0.1,2.5-0.4,3.6-0.3c1.4-0.5,1.8-0.4,1.2,0.4
				c-0.4,0.6-0.6,1.2-0.5,1.9c-1.1,4.9-1.3,10.1-1.5,15.1c0.9-0.4,1.7-0.7,2.6-1.1c-0.1-0.1-0.2-0.2-0.3-0.4
				c-1.3-1.4-3.4,0.7-2.1,2.1c0.1,0.1,0.2,0.2,0.3,0.4c0.9,1,2.5,0.2,2.6-1.1c0.1-4.3,0.5-8.6,1.1-12.8c0.3-1.8,1.6-4.8,0.5-6.6
				c-0.9-1.4-2.4-1.1-3.8-1c-3.9,0.3-7.7,0.6-11.6,0.9C271.4,300.9,271.4,303.9,273.3,303.7L273.3,303.7z" style="fill:#E8E8E8;"/>
		</g>
	</g>
	<g>
		<g>
			<path d="M275.3,300.8c-0.1,0-0.2,0-0.4,0c-0.5,0-1,0.3-1.3,0.7c-1.6,2.7-1.5,7.4-2,10.5c-0.7,4.4-1.4,8.8-2.1,13.2
				c-0.1,0.8,0.2,1.7,1,1.8c4.7,1,9.1,0.8,13.6-0.9c1.8-0.7,1-3.6-0.8-2.9c-4,1.5-7.8,1.8-12,0.9c0.3,0.6,0.7,1.2,1,1.8
				c0.3-2,3.8-22.1,2.8-22.2C277.2,304,277.2,301,275.3,300.8L275.3,300.8z" style="fill:#E8E8E8;"/>
		</g>
	</g>
	<g>
		<g>
			<path d="M302.5,300.3c0,0-0.1,0.1-0.1,0.1c0.7,0,1.4,0,2.1,0c-0.1,0-0.1-0.1-0.2-0.1c0,0.7,0,1.4,0,2.1
				c0.1-0.1,1.9-0.1,2.3-0.1c1.1-0.1,2.3-0.2,3.4-0.2c2.1-0.1,4.2,0,6.3,0.2c-0.4-0.9-0.7-1.7-1.1-2.6c-0.2,0.1-0.4,0.3-0.5,0.4
				c-1.9,0.2-1.9,3.2,0,3c1.1-0.1,1.9-0.4,2.7-1.3c0.9-1,0.3-2.5-1.1-2.6c-2.9-0.2-5.8-0.3-8.7-0.1c-1.4,0.1-4.3-0.2-5.3,1.1
				c-0.5,0.6-0.7,1.6,0,2.1c0.1,0,0.1,0.1,0.2,0.1c0.6,0.5,1.6,0.7,2.1,0c0,0,0.1-0.1,0.1-0.1C305.9,301,303.8,298.9,302.5,300.3
				L302.5,300.3z" style="fill:#E8E8E8;"/>
		</g>
	</g>
	<g>
		<g>
			<path d="M301.3,301c-0.3,4.1-0.6,8.2-0.8,12.3c-0.1,2.3-1.4,8.2,0,10.3c0.7,1,1.4,1.4,2.7,1.3c1.3,0,2.7-0.9,3.9-1.2
				c2.4-0.7,4.9-0.9,7.4-0.9c1.9,0,1.9-3,0-3c-2.2,0-4.4,0.2-6.6,0.7c-1,0.2-2.9,1.3-3.8,1.1c-0.7,0.5-1,0.4-0.8-0.4
				c-0.1-0.8-0.1-1.6,0-2.5c0.1-5.8,0.6-11.7,1-17.5C304.5,299,301.5,299,301.3,301L301.3,301z" style="fill:#E8E8E8;"/>
		</g>
	</g>
	<g>
		<g>
			<path d="M314.2,301.3c-0.8,6.7-1.2,13.4-1.1,20.2c0,1.9,3,1.9,3,0c-0.1-6.8,0.3-13.5,1.1-20.2
				C317.5,299.4,314.5,299.4,314.2,301.3L314.2,301.3z" style="fill:#E8E8E8;"/>
		</g>
	</g>
	<g>
		<g>
			<path d="M1113,720.8c23.6,51.9,40.1,106.7,49.2,163c0.3,1.9,3.2,1.1,2.9-0.8c-9.2-56.5-25.8-111.6-49.5-163.7
				C1114.8,717.6,1112.2,719.1,1113,720.8L1113,720.8z" style="fill:#E8E8E8;"/>
		</g>
	</g>
	<g>
		<g>
			<path d="M1237.5,633c-29.2,44.6-54.6,91.6-72.6,141.9c-0.7,1.8,2.2,2.6,2.9,0.8c17.9-50.1,43.2-96.8,72.3-141.2
				C1241.1,632.9,1238.5,631.4,1237.5,633L1237.5,633z" style="fill:#E8E8E8;"/>
		</g>
	</g>
	<g>
		<g>
			<path d="M1102.8,775.6c16.2,4.4,30.1,14.4,39.4,28.4c1.1,1.6,3.7,0.1,2.6-1.5c-9.7-14.6-24.2-25.2-41.2-29.8
				C1101.7,772.2,1100.9,775.1,1102.8,775.6L1102.8,775.6z" style="fill:#E8E8E8;"/>
		</g>
	</g>
	<g>
		<g>
			<path d="M1141.8,734.1c-5.5,9.1-9.2,19-10.7,29.6c-0.3,1.9,2.6,2.7,2.9,0.8c1.5-10.3,5-20,10.4-28.9
				C1145.4,734,1142.8,732.5,1141.8,734.1L1141.8,734.1z" style="fill:#E8E8E8;"/>
		</g>
	</g>
	<g>
		<g>
			<path d="M1172.9,677.9c4.9,5.4,8.3,11.6,10.9,18.3c1.2,3,2.2,6.1,3.1,9.1c0.9,2.9,3,7.2,1.8,10.1
				c-0.7,1.8,2.2,2.6,2.9,0.8c1.2-2.9,0-5.8-0.9-8.6c-1.2-4.1-2.5-8.2-4.1-12.2c-2.8-7.2-6.5-13.9-11.7-19.7
				C1173.7,674.3,1171.6,676.4,1172.9,677.9L1172.9,677.9z" style="fill:#E8E8E8;"/>
		</g>
	</g>
	<g>
		<g>
			<path d="M1206.8,689.4c12.5-14.4,28.7-24.6,47.1-29.6c1.9-0.5,1.1-3.4-0.8-2.9c-18.8,5.1-35.6,15.6-48.4,30.3
				C1203.5,688.7,1205.6,690.9,1206.8,689.4L1206.8,689.4z" style="fill:#E8E8E8;"/>
		</g>
	</g>
	<g>
		<g>
			<path d="M1171.5,769.7c9-8,19.6-13.6,30.8-17.8c5.1-1.9,10.2-3.4,15.4-4.9c2.9-0.8,5.7-1.5,8.6-2.3
				c1.4-0.3,7.3-2.7,8.4-2.1c-0.2-0.7-0.4-1.4-0.5-2.1c-0.1,0.1-0.1,0.2-0.2,0.3c0.7-0.2,1.4-0.4,2.1-0.5c-0.1,0-0.2-0.1-0.3-0.1
				c-1.7-0.9-3.2,1.7-1.5,2.6c0.1,0,0.2,0.1,0.3,0.1c0.7,0.4,1.6,0.2,2.1-0.5c0.1-0.1,0.1-0.2,0.2-0.3c0.4-0.7,0.2-1.6-0.5-2.1
				c-1.4-0.8-2.9-0.1-4.4,0.2c-3.4,0.8-6.8,1.6-10.2,2.5c-6.5,1.7-13,3.6-19.4,5.8c-12,4.3-23.4,10.2-32.9,18.8
				C1168,768.8,1170.1,771,1171.5,769.7L1171.5,769.7z" style="fill:#E8E8E8;"/>
		</g>
	</g>
	<g>
		<g>
			<path d="M1120.5,893.1c22.7,5.5,45.8,1.4,68.5-1.3c24.6-2.9,49.3-3.4,74-3.8c1.9,0,1.9-3,0-3
				c-24.1,0.4-48.2,0.9-72.1,3.6c-23.1,2.7-46.6,7.2-69.6,1.6C1119.5,889.7,1118.7,892.6,1120.5,893.1L1120.5,893.1z" style="fill:#E8E8E8;"/>
		</g>
	</g>
	<g>
		<g>
			<path d="M1192.1,884.6c40.4-2.1,80.8-4.3,121.2-6.4c1.9-0.1,1.9-3.1,0-3c-40.4,2.1-80.8,4.3-121.2,6.4
				C1190.2,881.7,1190.2,884.7,1192.1,884.6L1192.1,884.6z" style="fill:#E8E8E8;"/>
		</g>
	</g>
	<g>
		<g>
			<path d="M1076.4,595.9c-9.9,1.9-22-7.6-21.7-18.1c0.4-11.9,15.3-15.9,24.8-16c10.5,0,17.9,8.1,15.4,18.7
				c-1.1,4.6-4,8.4-7.6,11.3c-2.1,1.7-10.6,7.9-13,4.9c-1.2-1.5-3.3,0.6-2.1,2.1c3.2,4,9.8-0.1,13.2-2c5.2-3.1,9.9-7.8,11.9-13.6
				c4-11.7-3.1-23.4-15.4-24.3c-11.7-0.9-29.8,4.5-30.1,18.9c-0.2,12.6,13.6,23.2,25.5,21C1079.1,598.5,1078.3,595.6,1076.4,595.9
				L1076.4,595.9z" style="fill:#E8E8E8;"/>
		</g>
	</g>
	<g>
		<g>
			<path d="M308.8,643c-3.7,4.2-6.9,8.8-9.6,13.8c-0.9,1.7,1.7,3.2,2.6,1.5c2.6-4.7,5.6-9.1,9.2-13.2
				C312.2,643.7,310.1,641.5,308.8,643L308.8,643z" style="fill:#161616;"/>
		</g>
	</g>
	<g>
		<g>
			<path d="M308.7,644.2c3,4.2,6,8.3,9,12.5c1.1,1.6,3.7,0.1,2.6-1.5c-3-4.2-6-8.3-9-12.5
				C310.1,641.1,307.5,642.6,308.7,644.2L308.7,644.2z" style="fill:#161616;"/>
		</g>
	</g>
	<g>
		<g>
			<path d="M308.5,650.1c0.9,35.3,1.7,70.6,2.6,106c0,1.9,3,1.9,3,0c-0.9-35.3-1.7-70.6-2.6-106
				C311.4,648.2,308.4,648.1,308.5,650.1L308.5,650.1z" style="fill:#161616;"/>
		</g>
	</g>
	<g>
		<g>
			<path d="M314.4,758.9c44.4,0,88.8,0,133.2,0c1.9,0,1.9-3,0-3c-44.4,0-88.8,0-133.2,0
				C312.5,755.9,312.5,758.9,314.4,758.9L314.4,758.9z" style="fill:#161616;"/>
		</g>
	</g>
	<g>
		<g>
			<path d="M441.8,755.9c3.1,1.2,6.1,2.4,9.2,3.6c-0.4-1.1-0.9-2.2-1.3-3.3c-1.5,2.7-3.6,4.8-6.2,6.4
				c-2.5,1.5-0.2,5.4,2.3,3.9c3.3-1.9,6-4.7,7.9-8c0.8-1.4,0-2.8-1.3-3.3c-3.1-1.2-6.1-2.4-9.2-3.6
				C440.3,750.5,439.1,754.8,441.8,755.9L441.8,755.9z" style="fill:#161616;"/>
		</g>
	</g>
	<g>
		<g>
			<path d="M1209.8,215.8c-4-5.3,1.7-13.4,7.9-9.4c2.8,1.8,4.1,5.5,2.1,8.4c-1.8,2.6-5.5,3.7-8.3,2.3
				c-1.7-0.9-3.2,1.7-1.5,2.6c4.1,2,9.1,0.8,12-2.8c3.1-3.9,2-9.4-1.8-12.4c-3.7-2.9-8.9-2.9-12.1,0.7c-2.9,3.3-3.4,8.6-0.7,12.2
				C1208.3,218.8,1210.9,217.3,1209.8,215.8L1209.8,215.8z" style="fill:#353434;"/>
		</g>
	</g>
	<g>
		<g>
			<path d="M1293,596.1c-0.2-4.7,3.3-7.9,7.9-7.9c1.9,0,3.4,0.5,5.2-0.3c3.4-1.5,4.7-5.4,5.8-8.7
				c1.6-4.8,2.8-7.1,8.8-5.6c1.6,0.4,2.6,1.2,4.3,0.6c5-1.9,2-10.5,9.6-9.1c1.9,0.4,2.7-2.5,0.8-2.9c-2.4-0.5-4.7-0.3-6.8,1.2
				c-1.9,1.4-2.1,3.1-3.2,4.9c-0.1,1.9-1.4,2.7-3.8,2.4c-0.5-0.3-1.1-0.6-1.6-0.8c-1.1-0.1-1.7-0.7-2.9-0.6
				c-2.2,0.1-3.9,1.5-5.2,3.1c-1.9,2.3-2.4,5.1-3.5,7.9c-1.1,2.8-2.2,4.8-5.6,5.1c-1.5,0.1-2.9-0.4-4.4-0.2
				c-5.3,0.8-8.7,5.7-8.5,10.9C1290.1,598.1,1293.1,598.1,1293,596.1L1293,596.1z" style="fill:#282828;"/>
		</g>
	</g>
	<g>
		<g>
			<path d="M344.3,753.2c14.1-28.3,16.3-60.2,24.6-90.3c2.1-7.7,4.2-16.7,10-22.5c8.5-8.5,19.3-2.5,22.8,7.5
				c2.6,7.6,2.7,16.4,3.2,24.4c0.5,8.6,0.9,17.2,1.4,25.8c1.1,18.4,3,36.9,9.2,54.4c0.6,1.8,3.5,1,2.9-0.8
				c-6.5-18.4-8.3-37.9-9.3-57.3c-0.5-9.5-0.9-19.1-1.6-28.6c-0.6-7.6-0.9-15.9-4.5-22.8c-2.8-5.4-8.2-9.8-14.5-9.8
				c-6.5,0-11.9,4.5-15.2,9.7c-4.3,6.9-6.3,15.6-8.3,23.4c-2.2,8.7-4,17.5-5.8,26.3c-4,20.2-8.1,40.5-17.4,59.1
				C340.8,753.4,343.4,754.9,344.3,753.2L344.3,753.2z" style="fill:#4C4C4C;"/>
		</g>
	</g>
	<g>
		<g>
			<path d="M358,629.2c-2-2.9,2.1-6.8,4.5-3.6c2.3,3-2,6-4.4,3.7c-1.4-1.3-3.5,0.8-2.1,2.1c2.1,2,5.5,2.2,7.9,0.5
				c2.7-1.9,3-5.5,1-8.1c-2-2.6-5.7-3.3-8.2-1.1c-2.2,2-2.9,5.5-1.2,8C356.5,632.3,359.1,630.8,358,629.2L358,629.2z" style="fill:#4C4C4C;"/>
		</g>
	</g>
	<g>
		<g>
			<path d="M380.1,615.9c-1.6-2.3,1.9-4.4,3.4-2c1.6,2.6-2.9,5.5-4.4,2.6c-0.9-1.7-3.4-0.2-2.6,1.5
				c1.3,2.7,4.8,3.4,7.3,1.9c2.6-1.5,3.8-4.9,2.2-7.6c-1.4-2.3-4.7-3.5-7.1-2c-2.3,1.5-3.1,4.7-1.6,7
				C378.6,619,381.2,617.5,380.1,615.9L380.1,615.9z" style="fill:#4C4C4C;"/>
		</g>
	</g>
	<g>
		<g>
			<path d="M371.4,593.9c-0.8-2.3,1.7-4.7,3.7-2.8c2,1.9-0.3,4.6-2.6,3.8c-1.8-0.6-2.6,2.3-0.8,2.9
				c5.2,1.7,9.6-4.9,5.5-8.8c-1.8-1.8-4.6-2.1-6.7-0.6c-1.9,1.4-2.9,4-2,6.3C369.2,596.5,372.1,595.8,371.4,593.9L371.4,593.9z" style="fill:#4C4C4C;"/>
		</g>
	</g>
	<g>
		<g>
			<path d="M409.6,620.6c-0.3-0.2,0.1,0.1,0.2,0.3c0,0.1,0,0.2,0,0.3c0,0.1,0,0.1,0-0.1c0,0,0,0.1,0,0.1
				c0.2-0.1,0,0,0,0c-0.1,0,0.3,0,0.4,0c0.3,0,0.6,0.1,0.9,0.2c-0.4-0.5-0.7-1-1.1-1.4c0,0.8,0,1.6,0,2.4c0.4-0.5,0.7-1,1.1-1.4
				c-0.8,0.3-1.6,0.4-2.4,0.2c-1.8-0.6-2.6,2.3-0.8,2.9c1.3,0.4,2.8,0.4,4-0.2c0.6-0.3,1.1-0.7,1.1-1.4c0-0.8,0-1.6,0-2.4
				c0-0.7-0.5-1.3-1.1-1.4c-1.6-0.4-3.5-0.6-4.5,1c-0.8,1.2-0.7,3.1,0.8,3.7c0.7,0.4,1.6,0.2,2.1-0.5
				C410.6,622,410.4,621,409.6,620.6L409.6,620.6z" style="fill:#4C4C4C;"/>
		</g>
	</g>
	<g>
		<g>
			<path d="M576.6,222.5c0.5,0.2-0.6,5.2-0.1,6.4c0.7,1.5,2.3,2.4,3.9,2.6c2.2,0.4,4.1-0.6,5.9-1.7
				c1.8-1.1,6.1-4.9,7.4-0.7c0.3,0.9-0.7,3.1-0.4,4.3c0.9,4,4.7,3.8,7.4,1.7c1-0.8,1.6-1.8,2.4-2.7c1-2.4,2.5-2.9,4.4-1.5
				c0,0.6,0.1,1.2,0.3,1.7c1,1.5,1.5,2.5,3.5,2.4c1.9-0.1,1.9-3.1,0-3c0.1,0-2.1-4.5-3.3-5c-1.4-0.6-3-0.1-4.3,0.7
				c-0.9,0.5-1.6,1.3-2.3,2c-1.5,1.5-1.4,3.7-3.8,2.2c-2.3-1.4-0.4-3.6-2-5.6c-2.6-3.3-7-1.5-9.8,0.3c-1.6,1-5.6,4.6-6.6-0.7
				c-0.1-0.7,0.5-1.8,0.5-2.5c0-1.6-0.3-2.5-1.7-3.2C576.4,219,574.9,221.6,576.6,222.5L576.6,222.5z" style="fill:#282828;"/>
		</g>
	</g>
	<g>
		<g>
			<path d="M472,456.4c1.2,14,2.4,28,3.7,42c0.2,1.9,2.8,1.9,3,0c0-0.3,0.1-0.7,0.1-1c0.2-1.9-2.8-1.9-3,0
				c0,0.3-0.1,0.7-0.1,1c1,0,2,0,3,0c-1.2-14-2.4-28-3.7-42C474.8,454.5,471.8,454.4,472,456.4L472,456.4z" style="fill:#353434;"/>
		</g>
	</g>
	<g>
		<g>
			<path d="M474.3,457.5c4.2-0.9,11.5-2.2,14.7,1.3c2.9,3.1,2.2,9.2,2.6,13.4c0.7,8.4,1.4,16.8,2.1,25.1
				c0.2,1.9,3.2,1.9,3,0c-1-12-1.1-24.6-3.1-36.5c-1.5-9.3-13.1-7.6-20.1-6.2C471.6,455,472.4,457.9,474.3,457.5L474.3,457.5z" style="fill:#353434;"/>
		</g>
	</g>
	<g>
		<g>
			<path d="M499.9,401.1c3.2,32,4.3,64.1,3.3,96.3c-0.1,1.9,2.9,1.9,3,0c1-32.1-0.1-64.3-3.3-96.3
				C502.7,399.2,499.7,399.1,499.9,401.1L499.9,401.1z" style="fill:#353434;"/>
		</g>
	</g>
	<g>
		<g>
			<path d="M503.5,401.1c4.1,0.6,9.1,0.6,12.9,2c5.1,1.8,4.3,11,4.8,15.7c0.9,9.1,1.5,18.2,2.1,27.3
				c1.1,18.9,1.5,37.8,1.9,56.7c0,1.9,3,1.9,3,0c-0.5-21.8-1-43.7-2.5-65.5c-0.7-10.2-1.2-20.5-2.8-30.6c-1.4-8.6-11.7-7.5-18.6-8.6
				C502.4,398,501.6,400.8,503.5,401.1L503.5,401.1z" style="fill:#353434;"/>
		</g>
	</g>
	<g>
		<g>
			<path d="M528.9,382.3c3.4,38,6.9,75.9,10.3,113.9c0.2,1.9,3.2,1.9,3,0c-3.4-38-6.9-75.9-10.3-113.9
				C531.8,380.4,528.8,380.4,528.9,382.3L528.9,382.3z" style="fill:#353434;"/>
		</g>
	</g>
	<g>
		<g>
			<path d="M530.8,383.8c4.8-0.9,9.7-1.2,14.6-0.7c4.1,0.4,7,1.2,7.2,5.6c0.1,1.5,0.1,3.1,0.1,4.6
				c0.3,7.5,0.6,15,1,22.5c1.3,28.7,2.8,57.3,4.3,86c0.1,1.9,3.1,1.9,3,0c-1.6-31-3.2-61.9-4.6-92.9c-0.3-6.5-0.6-12.9-0.8-19.4
				c-0.1-2.9-0.1-5.8-2.8-7.7c-2.5-1.7-6.4-1.8-9.3-1.9c-4.5-0.3-9,0.1-13.5,1C528.1,381.3,528.9,384.2,530.8,383.8L530.8,383.8z" style="fill:#353434;"/>
		</g>
	</g>
	<g>
		<g>
			<path d="M450.5,372.7c-3.3,6.5-6.5,13-9.8,19.5c-0.9,1.7,1.7,3.2,2.6,1.5c3.3-6.5,6.5-13,9.8-19.5
				C453.9,372.5,451.3,370.9,450.5,372.7L450.5,372.7z" style="fill:#161616;"/>
		</g>
	</g>
	<g>
		<g>
			<path d="M450.9,375.7c1.4,5.8,4.5,10.9,9.1,14.7c1.5,1.2,3.6-0.9,2.1-2.1c-4.2-3.5-7-8-8.3-13.3
				C453.3,373,450.4,373.8,450.9,375.7L450.9,375.7z" style="fill:#161616;"/>
		</g>
	</g>
	<g>
		<g>
			<path d="M448.8,377.1c-0.6,43.8,5.1,87.5,17,129.7c0.5,1.9,3.4,1.1,2.9-0.8c-11.8-41.9-17.5-85.3-16.9-128.9
				C451.8,375.2,448.8,375.2,448.8,377.1L448.8,377.1z" style="fill:#161616;"/>
		</g>
	</g>
	<g>
		<g>
			<path d="M469.4,509.4c23.4-2.2,46.9-3.4,70.4-3.5c21.9-0.1,45.6-1,65.8,8.9c1.7,0.8,3.2-1.7,1.5-2.6
				c-19.6-9.6-42-9.4-63.4-9.3c-24.8,0-49.6,1.2-74.3,3.5C467.5,506.6,467.5,509.6,469.4,509.4L469.4,509.4z" style="fill:#161616;"/>
		</g>
	</g>
	<g>
		<g>
			<path d="M593.3,504.5c5.4,3.3,10.6,6.9,15.4,10.9c0.1-0.8,0.2-1.6,0.3-2.4c-4.1,3.1-8.1,6.2-12.2,9.3
				c-1.5,1.2,0,3.8,1.5,2.6c4.1-3.1,8.1-6.2,12.2-9.3c0.7-0.5,1.1-1.7,0.3-2.4c-5.1-4.2-10.4-8-16-11.3
				C593.1,501,591.6,503.5,593.3,504.5L593.3,504.5z" style="fill:#161616;"/>
		</g>
	</g>
	<g>
		<g>
			<path d="M458.1,427.8c1.5,1.8,3,3.6,4.5,5.4c0.6,0.7,1.9,0.5,2.4-0.3c8-15.7,15.9-31.5,24-47.2c2.1-4,5-0.7,8,0.4
				c1.9,0.7,3.9,0.5,5.8-0.2c4.8-1.8,8-6.8,10.2-11.2c3.6-7.5,6.8-15.3,10.3-22.9c0.9-2.1,1.9-4.2,2.8-6.2c0.5-1.2,1.1-3.7,2.1-4.6
				c3.1-2.8,10.7,3.6,13.3,5.2c4.3,2.6,10.5,8.4,16.1,6.9c4.2-1.1,6.2-5.7,7.4-9.5c5.8-17.1,13.2-32.6,24.6-46.7
				c0.9-1.1,0.1-3-1.5-2.5c-5.2,1.7-9.9,4.3-14.2,7.6c-1.4,1.1,0.4,3.1,1.8,2.4c3.9-1.9,7.9-3.9,11.8-5.8c-0.7-0.3-1.5-0.6-2.2-0.9
				c1.2,6,2.4,12,3.5,18c0.4,1.9,3.3,1.1,2.9-0.8c-1.2-6-2.4-12-3.5-18c-0.2-1-1.4-1.3-2.2-0.9c-3.9,1.9-7.9,3.9-11.8,5.8
				c0.6,0.8,1.2,1.6,1.8,2.4c3.9-3.1,8.1-5.3,12.9-6.9c-0.5-0.8-1-1.7-1.5-2.5c-8.7,10.8-15.9,22.7-21.1,35.6
				c-1.4,3.4-2.6,6.9-3.7,10.4c-0.9,2.8-2.3,8.8-6,9.4c-4.2,0.7-9.6-4.1-13-6.2c-3.4-2.1-6.7-4.4-10.2-6.3c-4-2.1-6.5-1.3-8.5,2.6
				c-3.8,7.5-6.9,15.5-10.4,23.2c-2.6,5.8-5.9,17.5-13,19.4c-4.8,1.3-9.2-5.9-13.5-1.7c-2.5,2.4-3.8,6.9-5.3,9.9
				c-2.3,4.5-4.5,8.9-6.8,13.4c-4.5,8.9-9.1,17.8-13.6,26.7c0.8-0.1,1.6-0.2,2.4-0.3c-1.5-1.8-3-3.6-4.5-5.4
				C458.9,424.2,456.8,426.3,458.1,427.8L458.1,427.8z" style="fill:#161616;"/>
		</g>
	</g>
	<g>
		<g>
			<path d="M893.4,179.3c-9.8-5.4-14-19.1-7.8-28.8c6.3-9.9,21.6-11.7,30.5-4.4c9.1,7.6,9.2,23.2,0.5,31.1
				c-9,8.3-24.1,6.1-31.5-3.1c-1.2-1.5-3.3,0.6-2.1,2.1c6.9,8.4,19.2,11.4,29.3,7.2c9.8-4.1,14.9-14.7,13.6-25
				c-1.3-10.6-9.2-18.5-19.8-19.7c-10.1-1.2-20.9,3.8-24.7,13.6c-4.2,10.8,0.5,23.9,10.6,29.4C893.6,182.8,895.1,180.2,893.4,179.3
				L893.4,179.3z" style="fill:#353434;"/>
		</g>
	</g>
	<g>
		<g>
			<path d="M936.8,197.7c-4.2-7.8,6.6-16.4,12-8c4.8,7.4-7,13-10.8,6.1c-0.9-1.7-3.5-0.2-2.6,1.5
				c2.4,4.4,8,5.6,12.4,3.7c5.2-2.2,6.5-8.2,3.6-12.8c-3-4.8-9.2-6.7-14-3.3c-4.5,3.2-5.9,9.5-3.3,14.4
				C935.2,200.9,937.8,199.4,936.8,197.7L936.8,197.7z" style="fill:#353434;"/>
		</g>
	</g>
	<g>
		<g>
			<path d="M884.2,954.1c78.7,0,157.3,0,236,0c1.9,0,1.9-3,0-3c-78.7,0-157.3,0-236,0
				C882.2,951.1,882.2,954.1,884.2,954.1L884.2,954.1z" style="fill:#161616;"/>
		</g>
	</g>
	<g>
		<g>
			<path d="M1169.6,954.1c15,0,30,0,45,0c1.9,0,1.9-3,0-3c-15,0-30,0-45,0C1167.7,951.1,1167.7,954.1,1169.6,954.1
				L1169.6,954.1z" style="fill:#161616;"/>
		</g>
	</g>
	<g>
		<g>
			<path d="M657.5,999.5c52.3,0,104.7,0,157,0c1.9,0,1.9-3,0-3c-52.3,0-104.7,0-157,0
				C655.6,996.5,655.6,999.5,657.5,999.5L657.5,999.5z" style="fill:#161616;"/>
		</g>
	</g>
	<g>
		<g>
			<path d="M812.5,987.5c45.3,0,90.7,0,136,0c1.9,0,1.9-3,0-3c-45.3,0-90.7,0-136,0
				C810.6,984.5,810.6,987.5,812.5,987.5L812.5,987.5z" style="fill:#161616;"/>
		</g>
	</g>
	<g>
		<g>
			<path d="M447,979.3c13.7,0,27.3,0,41,0c2.9,0,2.9-4.5,0-4.5c-13.7,0-27.3,0-41,0C444.1,974.8,444.1,979.3,447,979.3
				L447,979.3z" style="fill:#161616;"/>
		</g>
	</g>
	<g>
		<g>
			<path d="M502,979.3c4.7,0,9.3,0,14,0c2.9,0,2.9-4.5,0-4.5c-4.7,0-9.3,0-14,0C499.1,974.8,499.1,979.3,502,979.3
				L502,979.3z" style="fill:#161616;"/>
		</g>
	</g>
	<path d="M559.7,495.8" style="fill:none;stroke:#161616;stroke-miterlimit:10;"/>
</g>
<g id="cat">
	<path d="M388.8,797.7c1.9,0.3,4.5,2.7,6.5,14.1c5.9,0.4,11.8,0.8,17.7,1.2c4.9-4.1,9.8-8.2,14.7-12.4
		c0.7,4,1.6,9.9,2.4,17.1c1.8,16.7,0.7,20.7,1.8,30c0.5,4.1,2.8,21.4,13.5,38.2c8.2,12.9,13.6,13.3,20,25.9c5,9.9,6.5,19.2,7.1,25.3
		c1-0.1,13.7-1.1,21.8,8.8c3.7,4.6,7.8,13.2,4.7,20c-3,6.6-9.9,5.6-22.4,16.5c-4.4,3.8-8.6,7.6-7.6,10.6c1,3.1,6.4,2.5,15.9,7.6
		c5,2.7,7.4,4.1,8.2,6.5c3,8.7-16,22.1-18.8,24.1c-9.2,6.4-20.4,11.4-21.8,9.4c-2.1-3,20.5-19.5,17.1-25.9c-2.5-4.8-16.7,1.2-20-4.1
		c-3.6-5.8,9.1-20.3,15.9-28.2c13.1-15.2,21.4-19,20-24.1c-1.5-5.4-12.9-9-18.8-5.3c-5,3.1-4,10.1-5.9,14.7c-3.6,8.8-20.8,16-80,9.4
		c0.8-1.6,2-3.5,3.5-5.3c5.1-5.9,11.5-8,14.7-8.8c-0.9-1.5-6.1-10.4-2.9-21.2c2.4-8.2,8.1-12.7,10-14.1c-4-7.9-8-16.5-11.8-25.9
		c-2.4-6.1-4.6-12-6.5-17.7c-5.6,0-12.1-1-17.1-5.3c-7.5-6.6-4.5-14.7-12.3-20.6c-7.3-5.6-16-3.1-17.5-7.9c-0.7-2.3,0.7-5,2.2-6.4
		c3.8-3.6,10.6-1.8,18,0.2c5.1,1.4,12.4,4,20.5,8.9c-2.7-3.9-7.6-12.1-7.9-23C373,813.6,383,796.9,388.8,797.7z" style="fill:#161616;"/>
	<path d="M385.3,869.5c-6.9,3-4.3,23.3-1.8,41.8c1.6,11.7,4.3,27.2,9.4,45.3c-14,10.8-13.3,13.9-12.9,14.7
		c1.3,2.7,10.6,1.1,13.5,0.6c3.1-0.5,7.5-1.3,10-2.9c7.1-4.7,3.4-19,1.2-41.8c-3.2-33,0.6-46.8-10-54.7
		C393.3,871.4,388.7,868,385.3,869.5z" style="fill:#161616;"/>
	<g>
		<g>
			<path d="M316.9,910.9c0.3-0.1,2.9-1.4,2.8-1.5c-0.2-0.1-0.2,1.5-0.2,1.9c-0.1,1.3-0.5,2.9-0.3,4.3
				c0.4,2,1.9,3,3.9,2.8c1.1-0.1,1.9-0.6,2.8-1.3c0.2-0.2,1.6-1.4,1.7-1.4c0.2,0.1,0.2,2.3,0.3,2.5c0.4,1.9,1.8,3.5,3.9,3.3
				c1.9-0.2,1.9-3.2,0-3c-1,0.1-1.3-5.3-3-5.9c-0.7-0.3-1.5-0.1-2.1,0.2c-1.5,0.7-3.7,3.9-4.4,1.1c-0.5-2.1,1.6-5.1-0.3-6.9
				c-1.8-1.7-4.8,0.3-6.5,1.2C313.7,909.2,315.2,911.8,316.9,910.9L316.9,910.9z" style="fill:#FFFFFF;"/>
		</g>
	</g>
	<g>
		<g>
			<path d="M385.7,830.3c1.7-1.6,4.6-1.2,5.8,0.8c0.8,1.2,2.7,0.1,1.9-1.1c-2-3.2-6.6-3.8-9.3-1.3
				C383.1,829.7,384.7,831.3,385.7,830.3L385.7,830.3z" style="fill:#FFFFFF;"/>
		</g>
	</g>
	<g>
		<g>
			<path d="M407.1,829.6c1.8-1.8,4.8-1.9,6.7-0.2c1.1,1,2.7-0.6,1.6-1.6c-2.8-2.6-7.2-2.5-9.9,0.2
				C404.5,829,406.1,830.6,407.1,829.6L407.1,829.6z" style="fill:#FFFFFF;"/>
		</g>
	</g>
	<g>
		<g>
			<path d="M389.6,841.3c-1.1,2.2-5.8,9.8-0.7,10.4c2.1,0.2,4.1-1.7,5.3-3.1c1.7-2,2.7-4.5,3.6-6.9
				c0.7-1.8-2.2-2.6-2.9-0.8c-1.1,2.8-2.3,5.4-4.7,7.4c-0.5,0.4-0.8,1.1-0.6,0.2c0.1-0.6,0.4-1.2,0.7-1.7c0.6-1.3,1.2-2.6,1.9-3.9
				C393,841,390.4,839.5,389.6,841.3L389.6,841.3z" style="fill:#EC615B;"/>
		</g>
	</g>
	<g>
		<g>
			<path d="M392.3,842.9c1.3-0.6,2.3-1.4,3.5-2.2c-0.4,0.1-0.8,0.1-1.2,0.2c0.1,0,0.2,0.1,0.3,0.1
				c-0.3-0.2-0.6-0.5-0.9-0.7c0-0.6-0.1-0.6-0.5,0.1c-0.3,0.3-0.5,0.6-0.8,1c-0.5,0.6-0.9,1.2-1.3,1.8c-0.9,1.4-1.7,2.8-2.5,4.3
				c-0.9,1.7,1.7,3.2,2.6,1.5c0.9-1.6,1.8-3.3,2.8-4.8c0.8-1.2,2.5-2.5,2.6-4c0.1-1.1-0.8-2.1-1.8-2.1c-0.7-0.1-1.2,0.3-1.7,0.7
				c-0.9,0.7-1.7,1.2-2.8,1.7C389.1,841,390.6,843.6,392.3,842.9L392.3,842.9z" style="fill:#EC615B;"/>
		</g>
	</g>
	<g>
		<g>
			<path d="M389.3,841.2c3.3,0.1,6.4-2.3,7-5.6c0.2-1.4-1.9-2-2.2-0.6c-0.4,2.4-2.4,4.1-4.8,4
				C387.8,838.9,387.8,841.1,389.3,841.2L389.3,841.2z" style="fill:#FFFFFF;"/>
		</g>
	</g>
	<g>
		<g>
			<path d="M394.4,834.9c0.4,4,3.9,7.2,8,6.9c1.4-0.1,1.4-2.4,0-2.3c-2.8,0.2-5.5-1.7-5.8-4.6
				C396.5,833.5,394.3,833.5,394.4,834.9L394.4,834.9z" style="fill:#FFFFFF;"/>
		</g>
	</g>
</g>
<g id="color_chart">
	<path d="M1002.1,646.4c-33.1,40.1-66.1,80.1-99.2,120.2c51.9,12.9,103.8,25.8,155.7,38.7c1.7-21.5,2.1-65.4-21.8-111.3
		C1026,673.2,1013.1,657.6,1002.1,646.4z" style="fill:#848484;"/>
	<path d="M893.2,774.7c52.4,13.2,104.9,26.3,157.3,39.5c-0.6,8.4-2.3,20.1-7.3,33.1c-5.9,15.6-14.2,26.9-20.2,33.9
		C979.8,845.7,936.5,810.2,893.2,774.7z" style="fill:#BCBCBC;"/>
</g>
<g id="chart">
	<ellipse cx="885.5" cy="773.9" rx="174.3" ry="178.7" style="fill:none;stroke:#161616;stroke-width:3;stroke-miterlimit:10;"/>
	<g>
		<g>
			<path d="M887.7,770.1c0.4-0.4,1.4-0.1,1.6,0.4c0.1-0.4,0.1-0.8,0.2-1.2c-0.1,0.2-0.4,0.1-0.5,0
				c-0.8-0.3-1.6,0.3-1.8,1c-0.2,0.8,0.3,1.6,1,1.8c1.2,0.4,2.6,0.1,3.4-0.8c1-1,0.7-2.4-0.2-3.3c-1.6-1.6-4.1-1.7-5.7-0.2
				C884.1,769.2,886.2,771.4,887.7,770.1L887.7,770.1z" style="fill:#161616;"/>
		</g>
	</g>
	<g>
		<g>
			<path d="M993.1,634.5c-31.9,46.4-66.2,91.2-102.7,134.1c-1.2,1.5,0.9,3.6,2.1,2.1c36.7-43.1,71.1-88,103.2-134.7
				C996.8,634.4,994.2,632.9,993.1,634.5L993.1,634.5z" style="fill:#161616;"/>
		</g>
	</g>
	<g>
		<g>
			<path d="M888.9,772c56.4,10.1,112.4,22,168,35.8c1.9,0.5,2.7-2.4,0.8-2.9c-55.6-13.7-111.6-25.7-168-35.8
				C887.8,768.8,887,771.7,888.9,772L888.9,772z" style="fill:#161616;"/>
		</g>
	</g>
	<g>
		<g>
			<path d="M888.7,771.5c42.7,39.1,86.7,76.7,132,112.9c1.5,1.2,3.6-0.9,2.1-2.1c-45.2-36.1-89.3-73.8-132-112.9
				C889.4,768.1,887.2,770.2,888.7,771.5L888.7,771.5z" style="fill:#161616;"/>
		</g>
	</g>
	<path d="M885.6,595.6c3.7,16.5,6.2,40-2.9,64c-20.7,54.8-80.8,57.5-103.6,102.2c-12.4,24.3-15.5,64.5,23.7,134.5
		c0,11.8,0,23.5,0,35.3c-11.6-6.5-24.4-15.3-36.7-27.3c-46.7-45.7-53.9-105.4-55.4-128.1c0.1-16.4,2.4-69.7,41.7-117.3
		c8.9-10.8,40.5-47.8,94.3-59.7C862.4,595.8,876,595.3,885.6,595.6z" style="opacity:0.21;fill:#6D6C6C;"/>
</g>
<g id="leg_r">
	<path d="M589.6,876c6.9,17.4,13.8,34.7,20.6,52.1c-4.1,9-10.4,22.3-19.1,38.2c-11.4,20.8-16.8,27.8-15,29.9
		c2.6,3,19.5-4.5,85.1-53.6c-4.1-11.4-8.3-22.9-12.4-34.6c-6-17-11.8-33.8-17.5-50.5C617.5,863.7,603.6,869.9,589.6,876z" style="fill:#161616;"/>
	<path d="M774,571.2c11.1,18.9,3.2,48.2,2.1,52.1c-6.1,22.7-19.9,24.9-70.5,72.8c-31.7,30.1-40.8,42.3-47.5,55.7
		c-9.1,18.4-12.4,35.5-13.7,47.1c4.1,24,8.2,47.9,12.3,71.9c-10.5,6.8-25.2,14.9-44,20.6c-13.2,4-25.2,6-35.1,6.9
		c-9.2-23.3-22.4-66.3-15.3-118.6c8.6-63.7,42.3-105.4,70.3-140c42.6-52.6,91.9-86.7,134.1-108.7c-1.4,7.5-2.2,18.3,2,29.7
		C770.7,566.1,772.9,569.3,774,571.2z" style="fill:#3D3D3D;"/>
	<path d="M757.4,544.1c-12.5,33.8-27.5,60-41.1,79.7c-40.5,58.9-70.4,63.7-94.3,118.4c-15.3,35-18.6,68.4-19.6,80.4
		c-2.5,27.9-0.3,51.6,2.5,69c5.6-0.2,12.6-1,20.3-3.2c14.9-4.3,25.5-11.8,31.6-17.1c-1.7-8.1-4.2-20.1-7-34.8
		c-3.8-20.4-5.7-30.7-5.7-38c0-21.5,9.1-37.7,16.5-50.6c3.5-6.1,13.7-23,49.4-55.7c37.7-34.5,53.4-40.5,63.3-65.8
		c5.9-15.1,5.8-27.1,5.7-31C778.1,569.1,763.3,550.7,757.4,544.1z" style="opacity:0.2;fill:#6D6C6C;"/>
	<path d="M778.9,603.6c-20.5,17.2-49.8,42.9-83.5,75.9c-48.9,48-57.6,62-61.4,69c-10.6,19.5-28.8,63.9-10.8,138
		c5.9-2.4,12-5.1,18.4-8.2c5.1-2.5,10-5.1,14.6-7.6c-4-23.4-8-46.8-12-70.3c0.3-8.8,1.7-22,7.6-36.7c1.4-3.5,5.5-13.2,15.8-27.2
		c8.2-11.2,16.1-18.8,31.6-33.5c12.4-11.8,24.4-24.2,37.3-35.4c23.2-20.1,33.6-25.6,39.2-41.1C779,617.4,779.2,609.1,778.9,603.6z" style="opacity:0.27;fill:#6D6C6C;"/>
</g>
<g id="leg_l">
	<path d="M699.7,873.8c15.2,11.7,30.4,23.4,45.6,35.1c-20.2,51.2-20.2,64.5-16.1,66.8c6.8,3.9,29.1-20.2,41.8-37.9
		c11.3-15.9,17.9-30.8,21.7-41.2c-6.2-7.9-13.3-16.1-21.2-24.5c-10.9-11.6-21.6-21.5-31.7-30.1C726.5,852.7,713.1,863.2,699.7,873.8
		z" style="fill:#161616;"/>
	<path d="M855.7,571.2c8.9,23.6,3.5,46.4,2.1,52.1c-10.2,42.4-48.1,77.4-61.5,89.6c-22.9,21-41.9,31.5-52.5,59.5
		c-3.7,9.6-5.2,18.1-5.8,23.9c7.3,16.7,14.6,33.4,21.9,50c-4.8,10.3-15.3,29.3-36.5,43.8c-9,6.2-17.8,10-25,12.5
		c-15.2-15.5-56.4-61.5-54.2-123c1.7-47.2,28.4-85.2,49-114.7c20.7-29.5,26-25.9,52.1-63.6c22.6-32.7,26.9-47.6,45.9-54.2
		c19.1-6.7,47.1-3,59.4,13.6C853,564.2,854.1,567.1,855.7,571.2z" style="fill:#3D3D3D;"/>
	<path d="M637.3,615.8" style="fill:#EC615B;"/>
	<path d="M809.2,566.7c1.1,9.2,1.9,25-2.7,43.2c-16,61.9-74.6,67.3-102.8,134.3c-5.5,13.1-18.3,44.8-8.2,81.5
		c7.8,28.6,26,47.2,36.3,56.2c4-2.1,10.6-6.3,16.4-13.7c7.2-9.2,9.5-18.6,10.3-23.3c-7.1-17.1-14.2-34.3-21.2-51.4
		c1.3-7.6,4-18.5,10.3-30.2c8.6-16.2,19-24.4,32.4-36.5c24.6-22.1,40.3-36.1,53.9-55.4c8.6-12.3,21.1-30.4,25.2-56.9
		c3.4-21.6-0.2-39.7-3.3-50.6C840.3,564.9,824.7,565.8,809.2,566.7z" style="opacity:0.24;fill:#6D6C6C;"/>
	<path d="M860.1,598.8c-7.9,14.5-21.5,37.1-42.5,61.3c-40.4,46.5-67.8,56.2-86.6,92c-8.1,15.4-15.5,40.8-6.4,81.6
		c11.5,4.6,23.1,9.2,34.6,13.9c-7.3-17.2-14.5-34.3-21.8-51.5c0.7-8.5,2.8-21.1,9.9-34.1c6.3-11.6,13.3-17.7,28.7-31.7
		c25.5-23.2,38.3-34.8,43.5-40.6c11.9-13.1,24.9-27.8,33.1-50.5C858.6,623.1,859.9,608.6,860.1,598.8z" style="opacity:0.25;fill:#6D6C6C;"/>
</g>
<g id="hand_r">
	<path d="M616.7,431.8c-2.7-6-7.4-14.7-16-22.6c-10.8-9.9-25.9-17-28.3-14.1c-1,1.2-0.9,5.4,17.3,25.5" style="fill:#FFFFFF;stroke:#161616;stroke-width:2;stroke-miterlimit:10;"/>
	<path d="M579,415.4c-3.9,2.4-10.8,7.5-14.5,16.3c-1.4,3.4-3.2,7.8-1.9,12.9c2.3,8.8,12.9,12.5,13.8,12.9
		c4.3,1.5,5.4,0.4,8.5,2.2c5,2.9,4.8,6.8,8.5,10.4c7.6,7.3,23,4.4,23.7,1.3c0.4-1.7-4-3.3-3.6-6.4c0.2-1.9,2.1-2.7,3.4-3.9
		c7-6.4,0.3-25.1-0.9-28.2c-1.1-2.9-2.8-7.1-5.8-11.8" style="fill:#FFFFFF;stroke:#161616;stroke-width:2;stroke-miterlimit:10;"/>
	<g>
		<g>
			<path d="M560.9,443.3c2.3,6,6.7,11.3,12.8,13.7c6.2,2.5,10.8-0.8,10.9-7.4c0-1.9-3-1.9-3,0
				c-0.1,7.7-7.7,4.9-11.5,1.8c-2.9-2.3-5-5.4-6.3-8.9C563.1,440.7,560.2,441.4,560.9,443.3L560.9,443.3z" style="fill:#161616;"/>
		</g>
	</g>
	<g>
		<g>
			<path d="M568.4,435.1c3,5.6,7,11.8,13.2,14.1c5.6,2.1,8.9-1.3,9.5-6.6c0.2-1.9-2.8-1.9-3,0
				c-0.9,7.9-8.6,2.4-11.3-0.4c-2.4-2.5-4.2-5.5-5.8-8.6C570.1,431.9,567.5,433.4,568.4,435.1L568.4,435.1z" style="fill:#161616;"/>
		</g>
	</g>
	<g>
		<g>
			<path d="M577.4,421.6c1.8,4,3.6,8.1,6.1,11.7c1.7,2.5,4.1,6.1,7.4,6.7c7.8,1.5,5.3-9.6,3.8-13.4
				c-0.7-1.8-3.6-1-2.9,0.8c0.7,1.7,2.2,5.2,1.6,7.1c-1.7,5.5-6.3-1.3-7.3-2.7c-2.5-3.6-4.3-7.7-6.1-11.7
				C579.2,418.3,576.6,419.8,577.4,421.6L577.4,421.6z" style="fill:#161616;"/>
		</g>
	</g>
	<g>
		<g>
			<path d="M578.9,417.1c3-1.5,6.7,1.2,8.8,3.2c2.1,2,3.5,4.6,4.6,7.2c0.7,1.8,3.6,1,2.9-0.8
				c-2.5-6.2-9.9-16.1-17.8-12.2C575.7,415.3,577.2,417.9,578.9,417.1L578.9,417.1z" style="fill:#161616;"/>
		</g>
	</g>
	<path d="M795.8,386.4c3.2,9.5-1.7,17.6-15.4,42C757.4,469,756,472.6,750.7,479c-12.5,15-19.6,23.5-32.7,29
		c-23.9,10-50.4,1.2-64.9-4.3c-13.5-5.2-23.5-11.9-30-16.9c-4.4-3.6-7.8-6.4-10-8.1c-4.6-3.7-6.7-5.3-8.5-8.5
		c-0.1-0.1-1.8-3.2-2.2-6.7c-1.5-10.7,9.1-19.7,9.9-20.4c-12.7,3-17.1,2.4-17.9,0.6c-1.9-4,11.9-18.7,21.6-15.4
		c4.6,1.5,6.9,6.7,8.6,10.5c3.3,7.2,2.9,13.9,2.5,17.3c6.1,4.2,14.8,9.1,25.9,12.4c21.9,6.4,40.7,3,50,0.6
		c5.1-8.2,13.4-21.6,23.5-38.3c27.6-45.8,34.9-60.3,47.6-60.5C783.6,370.2,793,378.1,795.8,386.4z" style="fill:#FFFFFF;stroke:#161616;stroke-width:2;stroke-miterlimit:10;"/>
	<g>
		<g>
			<path d="M611.4,445.7c-8.6-0.4-9.8,10.7-10.9,17c1,0.1,2,0.3,2.9,0.4c0.1-4,1.9-7.3,3.8-10.7c1-1.7-1.6-3.2-2.6-1.5
				c-3.9,6.3-6.3,14.1-0.9,20.3c0.7-0.7,1.4-1.4,2.1-2.1c-1.5-1.3-2.3-3-2.4-5.1c-1,0.1-2,0.3-2.9,0.4c0.5,1.6,1.1,3.1,1.9,4.6
				c0.9,1.7,3.5,0.2,2.6-1.5c-0.7-1.2-1.3-2.5-1.6-3.9c-0.4-1.6-3.1-1.3-2.9,0.4c0.3,2.9,1.2,5.1,3.3,7.2c1.4,1.4,3.4-0.7,2.1-2.1
				c-4.4-5.1-1.6-11.6,1.4-16.7c-0.9-0.5-1.7-1-2.6-1.5c-2.2,3.9-4.1,7.6-4.2,12.2c-0.1,1.7,2.7,2.1,2.9,0.4c0.8-4.6,1.5-15,8-14.8
				C613.3,448.8,613.3,445.8,611.4,445.7L611.4,445.7z" style="fill:#FFFFFF;"/>
		</g>
	</g>
	<path d="M780.5,374.4c-6.3,16.9-16.5,41-32.6,68.3c-16.4,27.9-25,41.9-39.8,49.3c-30.4,15.1-77.3,4.9-93.1-24
		c-4.8-8.8-5.9-17.7-5.9-24.4c-3.8,1.3-9.7,2.7-15.4,0.5c-12.8-5.1-14-24.2-20.8-24c-4.5,0.2-7.8,8.7-9,11.8
		c-1.1,2.8-2.9,7.4-1.8,12.2c1.6,7.1,9.1,12.7,18.5,14.5c4.9,2.4,8,5.1,9.9,7.2c3.3,3.6,4.2,6.4,7.7,8.1c3.1,1.5,6.4,1.3,8.6,0.9
		c4.7,3.8,12.1,9.5,21.7,15.4c20.6,12.6,45.5,27.8,73.7,22.6c13.3-2.4,22.4-8.5,28-12.2c9.1-6.1,18.9-15.3,37.5-48.8
		c7.7-13.9,17.2-32.4,26.7-55.2c0.4-1,2.6-6.9-0.5-13.1C790.1,375.3,781,374.4,780.5,374.4z" style="opacity:0.21;fill:#6D6C6C;"/>
	<path d="M591.3,443.9c-1.4,1-0.8,3-2.5,4.5c-1.2,1-2.8,1-3.8,1c0,1.4-0.2,3.2-1.3,4.8c-1.4,2-3.3,2.4-3.2,3.2
		c0.2,0.9,3,0.4,5.7,1.9c1.9,1.1,3.1,2.8,3.8,4.1c6.6-6.3,13.2-12.5,19.8-18.8c-5,1.9-8.7,1.6-11.2,1
		C595.4,444.6,593,442.7,591.3,443.9z" style="opacity:0.22;fill:#6D6C6C;"/>
</g>
<g id="torso">
	<path d="M795,366.8c-6.7,6.7-10.2,14.3-17,29.5c-5.4,11.9-14.1,31.8-17,58.3c-3.2,29.6,4.3,36.3-1.7,58.3
		c-4.5,16.6-13,28.8-19.3,36.2c8.1,8.1,22.8,20.6,44.7,28.3c37.1,13,69.7,3.2,80.4-0.6c8.9-24,17.7-48,26.6-71.9
		c0.1-20.3,0.9-37.6,1.7-51c2-32,5.3-56.5,7.4-71.4c2.4-17.5,4.9-32.2,6.8-43c-22.5,1.2-41.1,3.8-54.4,6.2
		C809.6,353.7,799.3,362.5,795,366.8z" style="fill:#FFFFFF;stroke:#161616;stroke-width:2;stroke-miterlimit:10;"/>
	<path d="M848,346.4c4.5,10.7,10.3,28,11.6,49.7c3.1,51.6-21.8,92-40.7,122.6c-8.6,13.9-21.9,33.2-41.6,54.1
		c7.6,4,18.5,8.5,32.2,10.7c24.8,4,45-2,55-5.8c8.4-24.2,16.7-48.3,25.1-72.5c0.5-16.5,1.4-33.6,2.7-51c3-40.6,7.9-78.7,13.9-114.1
		C886.8,342.2,867.4,344.3,848,346.4z" style="opacity:0.19;fill:#6D6C6C;"/>
	<path d="M865.9,343.3c7.2,18.6,14.7,45.7,13,78.3c-4.8,90.7-76.6,145.6-89,154.8c7.6,2.7,17.9,5.5,30.4,6.3
		c18.6,1.2,33.7-2.6,43-5.8c9.2-24.2,18.5-48.3,27.7-72.5c0-22.1,0.8-45.7,2.7-70.7c2.6-33.7,6.9-64.9,12.1-93.1
		C892.5,341.5,879.2,342.4,865.9,343.3z" style="opacity:0.11;fill:#6D6C6C;"/>
</g>
<g id="hand_l">
	<path d="M903.9,338.2c8.1,3,20,8.8,28.6,20.5c9.6,13.1,11.7,28.9,6.2,79c-5.1,46.6-9.5,56.6-11.2,84.6
		c-1.9,30.8,1,56,3.7,72.1c11.4-2.7,22.8-5.4,34.2-8.1c12.4,3.3,19.9,9.4,23.6,13.1c3.7,3.6,11.5,11.2,9.3,17.4
		c-1.4,4-6.5,6-8.7,6.8c-4.3,1.7-7.9,1.5-11.8,1.2c-8.3-0.5-16.6-0.8-24.9-1.2c-4.3-0.2-10.5-0.4-18,0c10.1,8.7,14.4,14.3,13.1,16.8
		c-1.8,3.3-13.8,1-36.1-6.8c-1-8.1-2.6-20.4-5-35.4c-6.2-39.2-10.7-53.2-13.7-74c-3.1-21.5-2.1-40.9,0-79.6
		C894.8,417.2,897.7,381,903.9,338.2z" style="fill:#FFFFFF;stroke:#161616;stroke-width:2;stroke-miterlimit:10;"/>
	<g>
		<g>
			<path d="M950.3,610.3c7.7-3.2,15.7-1.4,23.1,1.9c6.3,2.7,12.5,6,17.4,10.8c1.4,1.3,3.5-0.8,2.1-2.1
				c-5.7-5.5-12.8-9.2-20.1-12.1c-7.5-3.1-15.6-4.5-23.4-1.3C947.8,608.1,948.6,611,950.3,610.3L950.3,610.3z" style="fill:#161616;"/>
		</g>
	</g>
	<g>
		<g>
			<path d="M960.1,601.1c13.3-2.6,29.1,5.3,36.4,16.6c1.1,1.6,3.7,0.1,2.6-1.5c-8.2-12.5-25-20.8-39.8-17.9
				C957.4,598.6,958.2,601.5,960.1,601.1L960.1,601.1z" style="fill:#161616;"/>
		</g>
	</g>
	<g>
		<g>
			<path d="M971.6,594.2c5.3,0.2,9.9,2.5,14.5,5c1.7,0.9,3.2-1.7,1.5-2.6c-5.1-2.7-10.2-5.2-16-5.4
				C969.7,591.1,969.7,594.1,971.6,594.2L971.6,594.2z" style="fill:#161616;"/>
		</g>
	</g>
	<path d="M905.3,340.6c5,11.3,12.1,29.7,15.7,53.3c8.7,57.8-12.7,87.9-8.9,150.4c0.9,15.5,3.8,38.6,13,66.7
		c8-2.6,20.2-5.2,34.5-3.6c10.1,1.2,15.1,1.8,20.1,5.4c5,3.6,7.9,8.4,13,8.1c2-0.1,4.7-1,5.8-3.1c2.7-4.9-4.7-13.3-7.2-16.1
		c-3.6-4.1-11-11.1-24.6-15.2c-11.8,2.4-23.6,4.8-35.4,7.2c-2.3-10.2-5.5-27.2-5.8-48.3c-0.3-18,2.9-39.8,9.4-82.8
		c1.2-8,2.7-24.1,5.8-56.4c1-10.6,1.8-20.1-1.8-31.8c-1.8-5.9-6.2-19.3-19.2-27.7C914.2,342.9,908.9,341.4,905.3,340.6z" style="opacity:0.16;fill:#6D6C6C;"/>
	<path d="M927.2,623c1.3,3.2,4.1,8.7,9.8,13c3.5,2.6,9.6,5.8,10.7,4.5c1.4-1.6-3.9-10.4-12.1-14.8
		C932.5,624,929.4,623.3,927.2,623z" style="opacity:0.22;fill:#6D6C6C;"/>
	<path d="M938.4,422.9c-9.1,25-20,65.1-17,114.6c1.5,25.3,6.4,47.1,11.6,64.4c-5.2-19.8-6.7-36.2-7.2-47.4
		c-1.2-29.9,4.2-46.7,9.8-101.6C937,440.2,937.9,429.7,938.4,422.9z" style="opacity:0.4;fill:#6D6C6C;"/>
	<path d="M958.6,598.8c-0.2-1.2,9.8-5.8,19.7-3.6c13.3,3,19.5,17,20.6,19.7c-4.7-5.3-12.3-12.2-23.3-14.8
		C966.3,598,958.7,599.8,958.6,598.8z" style="opacity:0.22;fill:#6D6C6C;"/>
</g>
<g id="Layer_11">
	<path d="M758.2,317.7c-4.2,3.9-5.1,12.1-6.8,28.2c-1.9,18.5-2.7,27.9,1.2,32.6c7.1,8.6,22.4,9.1,33,4.4
		c12.5-5.6,16.8-17.7,17.9-20.7c4.9-13.9,3.3-34.9-11.5-44.5C782,311.1,766.5,310,758.2,317.7z" style="fill:#212121;"/>
	<path d="M779.8,332.3c1.5,7.2,9.5,7.8,16.3,19.3c4.9,8.3,5.9,16.8,6,22.9c6.1-0.1,17.4-1.3,29.6-7.6
		c9.5-5,15.9-11.3,19.6-15.6c-2.5-4.1-6.2-10.1-10.6-17.3c-19-30.5-21.8-32.9-25.6-33.9C799.7,296.4,776.9,318.9,779.8,332.3z" style="fill:#FFFFFF;stroke:#161616;stroke-width:2;stroke-miterlimit:10;"/>
	<path d="M752.4,351.2c0.9,11.6,11.5,20,22.6,18.4c10.7-1.6,18.4-12,16.5-23.1c2,2.3,4.8,6.1,6.8,11.3
		c1.6,4.1,2.2,7.8,2.4,10.5c-1.5,2.5-9.3,14.9-23.9,17.3c-2.5,0.4-16.7,2.5-23.4-6c-3.2-4.2-3.5-9.3-3.7-13.4
		C749.5,359.5,751.2,354.2,752.4,351.2z" style="opacity:0.74;fill:#161616;"/>
	<path d="M710.4,248.3c-4.6,8.5-3.5,17.1-1.3,33.9c2.6,19,6,34.9,10.1,45.4c0.6,1.6,2.2,2.5,3.9,2.3
		c2.2-0.2,5.5-1.9,7.4-2.5c2.4,4.3,6.4,10.1,12.6,15.5c12.3,10.6,25.8,13.1,31.8,13.8c5.9-2.2,20.5-8.7,30.2-24.3
		c6.4-10.4,7.7-20,8-22.2c1.7-14.4-3.1-25.6-5.4-30.2c2.1-1.3,5.3-3.6,7.5-7.5c4.6-8.1,4.4-21.5-2.9-25.1c-5.5-2.7-14.2,0.3-20.1,8
		c-1.9-3.3-4.8-7.7-9.2-12.1c-1.1-1.1-9.2-9.3-18.4-13C746.6,223.2,719.8,231,710.4,248.3z" style="fill:#FFFFFF;stroke:#161616;stroke-width:2;stroke-miterlimit:10;"/>
	<g>
		<g>
			<path d="M810.9,320.2c-4.6,9.7-9.3,19.3-15.7,28c0.8-0.1,1.6-0.2,2.4-0.3c-0.6-0.7-1.2-1.5-1.7-2.2
				c-0.1,0.6-0.2,1.2-0.2,1.8c2.6-2.2,4.6-4.6,6.4-7.5c-0.9-0.5-1.7-1-2.6-1.5c-1.4,3-3.2,4.8-6.1,6.1c0.6,0.8,1.2,1.6,1.8,2.4
				c5.2-4.9,9.9-10.3,14.1-16.1c1.1-1.6-1.5-3.1-2.6-1.5c-4,5.6-8.6,10.8-13.6,15.5c-1.3,1.2,0.4,3,1.8,2.4c3.3-1.5,5.7-3.9,7.2-7.2
				c0.8-1.7-1.5-3.2-2.6-1.5c-1.7,2.6-3.6,4.8-5.9,6.9c-0.5,0.4-0.6,1.3-0.2,1.8c0.9,1.4,1,1.6,2.2,2.8c0.7,0.8,1.8,0.4,2.4-0.3
				c6.4-8.6,11.1-18.3,15.7-28C814.3,320,811.7,318.5,810.9,320.2L810.9,320.2z" style="fill:#161616;"/>
		</g>
	</g>
	<g>
		<g>
			<path d="M736.1,335.1c6.9-1.8,10.9-7.6,14.4-13.3c1-1.6-1.6-3.1-2.6-1.5c-3.1,5-6.6,10.3-12.6,12
				C733.4,332.7,734.2,335.6,736.1,335.1L736.1,335.1z" style="fill:#161616;"/>
		</g>
	</g>
	<g>
		<g>
			<path d="M745.7,319.7c2,0.1,3.6,0.9,4.9,2.4c1.3,1.5,3.4-0.7,2.1-2.1c-1.8-2.1-4.3-3.2-7-3.3
				C743.7,316.6,743.7,319.6,745.7,319.7L745.7,319.7z" style="fill:#161616;"/>
		</g>
	</g>
	<g>
		<g>
			<path d="M741.9,301.7c0-0.1,0-0.2,0-0.3c0-0.8-0.7-1.5-1.5-1.5c-0.8,0-1.5,0.7-1.5,1.5c0,0.1,0,0.2,0,0.3
				c0,0.8,0.7,1.5,1.5,1.5C741.2,303.1,741.9,302.5,741.9,301.7L741.9,301.7z" style="fill:#161616;"/>
		</g>
	</g>
	<g>
		<g>
			<path d="M748.6,293.7c1.9,0,1.9-3,0-3C746.7,290.7,746.7,293.7,748.6,293.7L748.6,293.7z" style="fill:#161616;"/>
		</g>
	</g>
	<g>
		<g>
			<path d="M747.7,301.3c1.9,0,1.9-3,0-3C745.8,298.3,745.8,301.3,747.7,301.3L747.7,301.3z" style="fill:#161616;"/>
		</g>
	</g>
	<path d="M709.7,277.5c-3.2-1.1-10-4-13.9-10.7c-6.1-10.4-1.2-22.5,1.2-28.2c1.3-3.2,4.9-11.1,22.3-26.6
		c13.2-11.9,19.9-17.8,27.4-21.1c26.8-11.7,54.2-0.5,59.2,1.6c7.4,3,12.8,6.7,23.5,13.9c13,8.8,21.3,14.5,27.8,24.3
		c7.9,12,3.1,15.1,9.9,28.6c10.8,21.4,25.7,18.8,34.6,38.6c1.5,3.3,9.8,21.7,0.4,37.8c-7.7,13.1-23.4,17.8-35,17.5
		c-21.1-0.6-34.5-18.4-42.1-28.6c-12.8-17-16.4-34.8-17.6-45.2c9.7-5.8,13-16.2,9.6-22.8c-2.5-4.7-9.4-9.4-15.5-6.8
		c-4.2,1.8-6.9,6.6-6.8,11.9c-4,0.7-16.3,2.2-29-4.8c-9.4-5.1-14.5-12.3-16.7-15.9c-5.6,2.2-14.6,6.4-23.5,14.7
		C717,263.7,712.2,272.1,709.7,277.5z" style="fill:#212121;"/>
	<path d="M774.9,283.3c11.1,10.4,16.5,21.9,18.2,25.8c7,16,6.6,30.7,5.9,38.2c3.6-6.1,7.1-12.2,10.7-18.4
		c5.8,13,11.5,26,17.3,38.9c3.1-0.7,9.2-2.5,15.1-7.7c4.5-4,6.9-8.3,8.1-11c-8.7-6.3-25-19.9-34.5-43c-4.1-9.9-6-19-6.8-26.3
		c8.6-6.1,11.8-15.9,8.6-22.9c-2-4.5-7.8-10.2-14.3-8.4c-5.5,1.5-9.3,7.4-8.4,14c-4.2,0.5-14.2,1.2-25.3-3.7
		c-11.5-5.1-17.8-13.4-20.2-16.9c2.7,17.7,9.5,27.3,15.2,32.8C768.1,278.4,769.6,278.4,774.9,283.3z" style="opacity:0.24;fill:#6D6C6C;"/>
	<path d="M808.9,288.1c-0.7,0-0.3,10.3-1.3,19.8c-1.3,12.2-4.9,21.9-7.9,28.4c2.7-1.7,6.7-4.9,10.2-9.9
		c5-7.3,5.9-14.5,6.2-18c-0.9-1.4-2.1-3.4-3.2-5.9C809.4,294.5,809.5,288.1,808.9,288.1z" style="opacity:0.24;fill:#6D6C6C;"/>
	<path d="M812.4,322.8c2.4,2.5,5.8,5.8,10.2,9.4c13.3,11.1,26.2,17.4,26.6,16.7c0.4-0.7-12.2-5.8-21.8-19.6
		c-6-8.6-9.5-18.8-11-18.3c-0.7,0.2-0.1,2.6-1.3,6.5C814.3,319.8,813.2,321.6,812.4,322.8z" style="opacity:0.19;fill:#6D6C6C;"/>
	<path d="M823.5,202.7c11.8,20.4,20.2,38.2,25.9,51.4c15.9,37.1,14.6,47.3,12.4,53.9c-4.9,14.9-18.5,23.3-26.6,27.3
		c2,2.8,10.3,13.9,25.5,17c2.9,0.6,20.4,3.9,33.7-8.2c9.9-8.9,11.4-20.7,11.7-23.8c1.8-16.8-8.2-29.4-11.4-33
		c-4.2-4.7-5.1-3.6-14.9-13.1c-7.6-7.3-11.3-11-13.5-15.6c-3.5-7.5-1.2-10.7-5.3-20.2c-2.2-5.2-4.8-8.7-6.7-11.4
		C844.6,213.9,830.6,206.2,823.5,202.7z" style="opacity:0.74;fill:#161616;"/>
	<path d="M733.6,288.9c1,2,1,4.9-0.3,5.5c-1.3,0.7-3.8-1.2-4.7-3.4c-0.7-1.9-0.5-4.6,0.8-5.1
		C730.8,285.4,732.8,287.2,733.6,288.9z" style="fill:#161616;"/>
	<g>
		<g>
			<path d="M725.4,286.6c3.5-1.2,7.1-2.1,10.8-2.7c1.4-0.2,0.8-2.4-0.6-2.2c-3.7,0.6-7.3,1.5-10.8,2.7
				C723.4,284.9,724,287,725.4,286.6L725.4,286.6z" style="fill:#161616;"/>
		</g>
	</g>
</g>
</svg>